<svg width="1920" height="4132" viewBox="0 0 1920 4132" fill="none" xmlns="http://www.w3.org/2000/svg">
<g clip-path="url(#clip0_547_1158)">
<rect width="1920" height="4132" fill="#450801"/>
<g filter="url(#filter0_f_547_1158)">
<circle cx="265" cy="302" r="450" fill="#E50909" fill-opacity="0.1"/>
</g>
<g filter="url(#filter1_f_547_1158)">
<circle cx="1560" cy="1331" r="450" fill="#E50909" fill-opacity="0.1"/>
</g>
<g filter="url(#filter2_f_547_1158)">
<circle cx="482" cy="1866" r="450" fill="#E50909" fill-opacity="0.1"/>
</g>
<g filter="url(#filter3_f_547_1158)">
<circle cx="1671" cy="2494" r="450" fill="#E50909" fill-opacity="0.1"/>
</g>
<g filter="url(#filter4_f_547_1158)">
<circle cx="456" cy="3344" r="450" fill="#E50909" fill-opacity="0.1"/>
</g>
<g filter="url(#filter5_f_547_1158)">
<circle cx="1456" cy="3928" r="450" fill="#E50909" fill-opacity="0.1"/>
</g>
<g clip-path="url(#clip1_547_1158)">
<path d="M311.925 928.421C323.277 859.041 276.255 793.588 206.873 782.222C137.492 770.856 72.0328 817.891 60.6646 887.262C55.9638 915.747 61.1293 944.984 75.3062 970.133L75.1922 970.115C75.1922 970.115 127.573 1047.11 127.171 1059.58L189.78 1069.83C193.374 1057.88 271.645 1002.29 271.645 1002.29L271.611 1002.28C293.069 982.973 307.292 956.915 311.925 928.421Z" fill="url(#paint0_linear_547_1158)"/>
<mask id="mask0_547_1158" style="mask-type:luminance" maskUnits="userSpaceOnUse" x="58" y="780" width="256" height="290">
<path d="M311.925 928.421C323.277 859.041 276.255 793.588 206.873 782.222C137.492 770.856 72.0328 817.891 60.6646 887.262C55.9638 915.747 61.1293 944.984 75.3062 970.133L75.1922 970.115C75.1922 970.115 127.573 1047.11 127.171 1059.58L189.78 1069.83C193.374 1057.88 271.645 1002.29 271.645 1002.29L271.611 1002.28C293.069 982.973 307.292 956.915 311.925 928.421Z" fill="white"/>
</mask>
<g mask="url(#mask0_547_1158)">
<path d="M148.249 960.747C152.877 867.637 185.312 805.79 203.563 777.938C190.421 776.435 177.129 776.885 164.118 779.272C137.815 802.01 107.865 851.271 90.5732 956.848L148.249 960.747Z" fill="#FF9400"/>
<path d="M213.066 971.36L268.972 986.057C285.987 882.184 273.99 826.085 256.766 795.798C245.026 788.85 232.293 783.737 219.008 780.636C227.418 812.939 238.344 881.802 213.066 971.36Z" fill="#FF9400"/>
<path d="M312.064 996.216C318.804 982.224 323.494 967.334 325.99 952.006C336.604 887.188 307.204 825.652 256.765 795.801C273.779 825.717 285.668 880.832 269.577 982.249C284.271 986.333 298.536 990.97 312.064 996.216Z" fill="url(#paint1_linear_547_1158)"/>
<path d="M90.9896 954.421C108.34 850.534 138.021 801.831 164.118 779.272C105.094 790.076 55.691 839.685 44.8352 905.956C42.3183 921.224 42.0074 936.774 43.912 952.131C56.3994 952.501 72.4997 953.178 90.9896 954.421Z" fill="url(#paint2_linear_547_1158)"/>
<path d="M213.598 969.412C238.165 880.816 227.351 812.7 219.006 780.646C216.042 779.95 213.054 779.314 210.011 778.819C207.86 778.469 205.714 778.186 203.563 777.938C185.387 805.673 153.143 867.149 148.316 959.643C169.311 962.082 191.43 965.263 213.598 969.412Z" fill="url(#paint3_radial_547_1158)"/>
</g>
<path opacity="0.2" d="M148.665 867.829C127.938 892.365 101.248 903.912 89.0468 893.6C76.8452 883.288 83.7373 855.046 104.462 830.491C125.187 805.935 151.882 794.401 164.081 804.72C176.279 815.039 169.382 843.286 148.665 867.829Z" fill="white"/>
<path d="M198.343 1071.9C198.218 1072.67 197.942 1073.41 197.531 1074.08C197.12 1074.74 196.583 1075.32 195.948 1075.78C195.314 1076.24 194.596 1076.56 193.835 1076.74C193.074 1076.92 192.285 1076.95 191.513 1076.83L124.35 1065.89C123.578 1065.77 122.838 1065.49 122.173 1065.08C121.509 1064.67 120.931 1064.13 120.475 1063.49C120.018 1062.86 119.691 1062.14 119.513 1061.38C119.334 1060.62 119.307 1059.83 119.434 1059.05L119.802 1056.79C120.056 1055.23 120.918 1053.84 122.199 1052.92C123.48 1051.99 125.075 1051.62 126.633 1051.87L193.797 1062.8C195.354 1063.06 196.747 1063.92 197.668 1065.2C198.59 1066.49 198.965 1068.08 198.711 1069.64L198.343 1071.9Z" fill="#FF9400"/>
<path d="M138.91 1092.61L133.857 961.945L138.311 962.151L143.364 1092.81L138.91 1092.61Z" fill="white"/>
<path d="M131.251 1095.75L67.4668 958.166L71.5156 956.29L135.297 1093.88L131.251 1095.75Z" fill="white"/>
<path d="M171.15 1097.86L166.863 1096.64L218.362 975.185L222.651 976.403L171.15 1097.86Z" fill="white"/>
<path d="M177.416 1103.27L174.176 1100.21L278.313 989.961L281.552 993.024L177.416 1103.27Z" fill="white"/>
<path d="M174.61 993.513C150.493 989.586 138.962 977.338 134.956 971.954C130.013 975.884 117.446 984.019 100.761 981.303C79.5947 977.856 68.4928 959.637 68.03 958.863C67.6884 958.292 67.5878 957.608 67.7503 956.963C67.9128 956.317 68.325 955.763 68.8964 955.421C69.4677 955.08 70.1514 954.979 70.7969 955.141C71.4424 955.304 71.997 955.716 72.3386 956.287C72.4413 956.458 82.751 973.288 101.568 976.352C120.25 979.394 133.568 966.548 133.701 966.421C133.978 966.148 134.314 965.942 134.683 965.822C135.052 965.701 135.444 965.668 135.828 965.726C136.21 965.785 136.573 965.931 136.891 966.152C137.208 966.373 137.471 966.663 137.659 967C137.75 967.164 147.417 984.005 175.416 988.564C203.301 993.105 216.491 980.102 216.615 979.961C216.923 979.647 217.309 979.419 217.733 979.3C218.156 979.181 218.604 979.176 219.031 979.284C219.457 979.392 219.848 979.611 220.164 979.917C220.48 980.224 220.71 980.608 220.831 981.031C221.008 981.664 225.566 996.705 244.894 999.852C264.425 1003.03 274.485 989.827 274.578 989.693C274.775 989.428 275.021 989.204 275.304 989.035C275.587 988.865 275.9 988.753 276.226 988.705C276.552 988.656 276.885 988.672 277.205 988.753C277.524 988.833 277.825 988.975 278.09 989.171C278.355 989.368 278.579 989.614 278.748 989.897C278.918 990.18 279.03 990.493 279.078 990.819C279.127 991.145 279.11 991.478 279.03 991.798C278.95 992.117 278.808 992.418 278.611 992.683C278.123 993.325 266.595 1008.47 244.089 1004.8C227.286 1002.07 220.052 991.419 217.361 985.828C211.771 989.877 197.882 997.302 174.61 993.513Z" fill="white"/>
<path d="M175.517 1145.32L115.939 1135.57L116.643 1080.95L192.272 1093.34L175.517 1145.32Z" fill="url(#paint4_linear_547_1158)"/>
<path d="M128.632 1082.96L119.781 1093.8L114.826 1080.71L128.632 1082.96Z" fill="#FF9400"/>
<path d="M145 1085.62L136.142 1096.46L131.18 1083.37L145 1085.62Z" fill="#FF9400"/>
<path d="M161.357 1088.29L152.496 1099.13L147.542 1086.04L161.357 1088.29Z" fill="#FF9400"/>
<path d="M177.715 1090.95L168.858 1101.79L163.909 1088.7L177.715 1090.95Z" fill="#FF9400"/>
<path d="M194.073 1093.61L185.226 1104.46L180.267 1091.36L194.073 1093.61Z" fill="#FF9400"/>
<path d="M66.6072 962.243C64.5621 961.906 62.7206 960.806 61.4535 959.166C60.1863 957.525 59.5876 955.466 59.7778 953.402C59.9681 951.338 60.9331 949.423 62.4787 948.041C64.0244 946.66 66.0358 945.916 68.1081 945.958C87.261 946.355 121.912 948.774 178.247 957.995C234.113 967.145 267.94 975.909 286.465 981.644C288.541 982.287 290.276 983.729 291.288 985.651C292.301 987.573 292.509 989.819 291.866 991.895C291.223 993.97 289.781 995.705 287.859 996.718C285.937 997.731 283.691 997.939 281.615 997.295C266.837 992.726 233.433 983.639 175.586 974.163C117.285 964.614 83.0041 962.665 67.7621 962.346C67.3754 962.335 66.9898 962.3 66.6072 962.243Z" fill="#FF9400"/>
<path style="mix-blend-mode:screen" d="M84.0084 964.177C83.1802 965.185 82.2398 966.096 81.2055 966.892C77.8975 969.405 73.755 970.56 69.6242 970.121C65.4934 969.682 61.6859 967.683 58.9795 964.531C56.2731 961.38 54.8719 957.314 55.0622 953.165C55.2525 949.015 57.0198 945.094 60.0033 942.204C62.9868 939.313 66.9612 937.671 71.1149 937.612C75.2685 937.553 79.2879 939.082 82.3521 941.887C85.4163 944.692 87.2941 948.561 87.6019 952.703C87.9098 956.846 86.6244 960.95 84.0084 964.177Z" fill="url(#paint5_radial_547_1158)"/>
<path d="M74.3276 957.334C73.5773 957.874 72.684 958.179 71.7605 958.21C70.837 958.242 69.9249 958 69.1392 957.513C68.3536 957.027 67.7299 956.318 67.3468 955.477C66.9637 954.636 66.8385 953.701 66.987 952.789C67.1355 951.877 67.551 951.029 68.1811 950.353C68.8111 949.677 69.6274 949.203 70.5268 948.991C71.4262 948.779 72.3682 948.839 73.2339 949.162C74.0996 949.485 74.8501 950.057 75.3904 950.807C75.7497 951.305 76.0071 951.869 76.1481 952.467C76.2891 953.065 76.3109 953.685 76.2122 954.291C76.1135 954.897 75.8962 955.478 75.5728 956C75.2495 956.522 74.8263 956.976 74.3276 957.334Z" fill="white"/>
<path style="mix-blend-mode:screen" d="M291.883 998.024C291.059 999.035 290.12 999.947 289.084 1000.74C285.776 1003.26 281.632 1004.42 277.497 1003.98C273.363 1003.55 269.551 1001.55 266.84 998.397C264.129 995.246 262.723 991.178 262.91 987.025C263.097 982.872 264.863 978.947 267.846 976.052C270.829 973.157 274.806 971.511 278.962 971.449C283.119 971.387 287.143 972.914 290.211 975.719C293.28 978.524 295.161 982.394 295.472 986.54C295.783 990.685 294.499 994.793 291.883 998.024Z" fill="url(#paint6_radial_547_1158)"/>
<path d="M282.206 991.182C281.456 991.722 280.562 992.027 279.638 992.059C278.714 992.092 277.801 991.849 277.015 991.362C276.229 990.876 275.605 990.167 275.221 989.326C274.838 988.484 274.712 987.548 274.861 986.636C275.01 985.723 275.425 984.875 276.056 984.199C276.686 983.523 277.503 983.049 278.403 982.836C279.303 982.624 280.246 982.684 281.112 983.008C281.978 983.331 282.729 983.904 283.269 984.654C283.993 985.661 284.287 986.914 284.088 988.138C283.888 989.362 283.212 990.457 282.206 991.182Z" fill="white"/>
<path style="mix-blend-mode:screen" d="M148.421 969.857C146.391 972.356 143.665 974.197 140.589 975.147C137.513 976.097 134.224 976.114 131.138 975.195C128.053 974.276 125.309 972.462 123.254 969.984C121.199 967.505 119.925 964.473 119.594 961.27C119.262 958.068 119.888 954.839 121.391 951.992C122.895 949.145 125.209 946.808 128.041 945.276C130.873 943.744 134.096 943.087 137.301 943.387C140.507 943.687 143.552 944.93 146.05 946.961C149.38 949.696 151.497 953.635 151.941 957.922C152.384 962.208 151.119 966.497 148.421 969.857Z" fill="url(#paint7_radial_547_1158)"/>
<path d="M138.747 963.019C137.997 963.56 137.104 963.865 136.18 963.898C135.257 963.93 134.344 963.688 133.559 963.202C132.773 962.716 132.149 962.008 131.765 961.167C131.382 960.326 131.257 959.391 131.405 958.479C131.554 957.566 131.969 956.719 132.6 956.043C133.23 955.367 134.046 954.894 134.946 954.682C135.845 954.47 136.787 954.53 137.653 954.854C138.518 955.178 139.268 955.751 139.808 956.501C140.167 956.999 140.424 957.562 140.565 958.159C140.706 958.756 140.727 959.375 140.629 959.98C140.53 960.586 140.313 961.166 139.99 961.687C139.667 962.209 139.245 962.661 138.747 963.019Z" fill="white"/>
<path style="mix-blend-mode:screen" d="M234.21 983.825C232.181 986.325 229.456 988.166 226.38 989.117C223.304 990.067 220.015 990.084 216.929 989.166C213.843 988.247 211.099 986.434 209.044 983.956C206.989 981.477 205.715 978.445 205.382 975.243C205.05 972.041 205.676 968.812 207.179 965.964C208.682 963.117 210.995 960.78 213.827 959.248C216.659 957.715 219.881 957.057 223.087 957.356C226.292 957.656 229.337 958.899 231.836 960.929C233.505 962.27 234.891 963.928 235.915 965.808C236.938 967.688 237.579 969.753 237.8 971.882C238.021 974.011 237.817 976.163 237.201 978.213C236.585 980.263 235.568 982.171 234.21 983.825Z" fill="url(#paint8_radial_547_1158)"/>
<path d="M224.536 976.988C223.787 977.528 222.894 977.834 221.97 977.866C221.047 977.899 220.134 977.657 219.348 977.171C218.562 976.685 217.938 975.976 217.555 975.136C217.172 974.295 217.046 973.359 217.195 972.447C217.343 971.535 217.759 970.688 218.389 970.012C219.02 969.336 219.836 968.862 220.736 968.651C221.635 968.439 222.577 968.499 223.443 968.823C224.308 969.146 225.058 969.72 225.598 970.47C225.957 970.967 226.214 971.531 226.355 972.128C226.496 972.725 226.517 973.344 226.419 973.949C226.32 974.554 226.103 975.134 225.78 975.656C225.457 976.177 225.035 976.63 224.536 976.988Z" fill="white"/>
</g>
<g clip-path="url(#clip2_547_1158)">
<path d="M325.747 1835.75C316.967 1802.12 282.594 1781.97 248.961 1790.75C215.329 1799.52 195.178 1833.9 203.95 1867.53C207.537 1881.34 215.733 1893.52 227.182 1902.04L227.127 1902.06C227.127 1902.06 266.235 1926.35 268.554 1932.07L298.902 1924.14C298.129 1918.02 322.355 1877.21 322.355 1877.21L322.339 1877.21C328.164 1864.18 329.367 1849.56 325.747 1835.75Z" fill="url(#paint9_linear_547_1158)"/>
<mask id="mask1_547_1158" style="mask-type:luminance" maskUnits="userSpaceOnUse" x="201" y="1788" width="127" height="145">
<path d="M325.747 1835.75C316.967 1802.12 282.594 1781.97 248.961 1790.75C215.329 1799.52 195.178 1833.9 203.95 1867.53C207.537 1881.34 215.733 1893.52 227.182 1902.04L227.127 1902.06C227.127 1902.06 266.235 1926.35 268.554 1932.07L298.902 1924.14C298.129 1918.02 322.355 1877.21 322.355 1877.21L322.339 1877.21C328.164 1864.18 329.367 1849.56 325.747 1835.75Z" fill="white"/>
</mask>
<g mask="url(#mask1_547_1158)">
<path d="M258.263 1883.18C241.686 1840.17 243.943 1805.72 246.606 1789.47C240.366 1791.43 234.45 1794.3 229.049 1797.99C221.722 1813.54 218.064 1841.8 231.418 1892.98L258.263 1883.18Z" fill="#FF9400"/>
<path d="M289.682 1874.98L317.893 1870.41C304.755 1820.06 288.086 1797.11 274.23 1786.88C267.531 1786.09 260.752 1786.33 254.127 1787.6C264.404 1800.51 283.149 1829.44 289.682 1874.98Z" fill="#FF9400"/>
<path d="M339.403 1866.36C339.644 1858.69 338.778 1851.02 336.832 1843.59C328.633 1812.17 303.009 1790.26 274.23 1786.88C287.917 1796.99 304.34 1819.51 317.403 1868.57C324.862 1867.47 332.238 1866.7 339.403 1866.36Z" fill="url(#paint10_linear_547_1158)"/>
<path d="M231.119 1891.8C218.131 1841.37 221.779 1813.41 229.049 1797.99C204.542 1814.7 192.163 1847.03 200.545 1879.15C202.469 1886.56 205.446 1893.65 209.385 1900.2C215.103 1897.87 222.514 1894.94 231.119 1891.8Z" fill="url(#paint11_linear_547_1158)"/>
<path d="M289.532 1873.99C282.87 1829.03 264.326 1800.41 254.128 1787.6C252.649 1787.88 251.171 1788.19 249.697 1788.58C248.655 1788.85 247.628 1789.16 246.606 1789.47C243.954 1805.65 241.708 1839.9 258.072 1882.66C268.049 1879.56 278.682 1876.56 289.532 1873.99Z" fill="url(#paint12_radial_547_1158)"/>
</g>
<path opacity="0.2" d="M239.821 1841.1C235.374 1856.35 225.628 1866.92 218.047 1864.7C210.465 1862.49 207.917 1848.35 212.359 1833.09C216.802 1817.84 226.553 1807.28 234.134 1809.49C241.716 1811.71 244.263 1825.86 239.821 1841.1Z" fill="white"/>
<path d="M303.187 1923.36C303.286 1923.74 303.309 1924.13 303.257 1924.51C303.205 1924.89 303.077 1925.26 302.883 1925.6C302.688 1925.93 302.429 1926.22 302.121 1926.46C301.813 1926.69 301.462 1926.86 301.088 1926.96L268.544 1935.48C268.17 1935.58 267.781 1935.6 267.398 1935.55C267.015 1935.5 266.646 1935.37 266.312 1935.18C265.979 1934.98 265.687 1934.72 265.453 1934.41C265.22 1934.11 265.05 1933.75 264.952 1933.38L264.665 1932.28C264.467 1931.53 264.577 1930.72 264.971 1930.05C265.365 1929.38 266.01 1928.89 266.765 1928.69L299.309 1920.16C300.064 1919.97 300.866 1920.08 301.539 1920.47C302.213 1920.87 302.702 1921.51 302.9 1922.27L303.187 1923.36Z" fill="#FF9400"/>
<path d="M280.481 1944.64L252 1886.6L254.054 1885.8L282.535 1943.84L280.481 1944.64Z" fill="white"/>
<path d="M277.65 1947.59L221.24 1898.21L222.693 1896.55L279.103 1945.94L277.65 1947.59Z" fill="white"/>
<path d="M296.103 1940.55L293.921 1940.86L292.842 1875.64L295.024 1875.33L296.103 1940.55Z" fill="white"/>
<path d="M300.02 1941.74L297.942 1941L322.897 1870.3L324.974 1871.04L300.02 1941.74Z" fill="white"/>
<path d="M276.745 1892.7C265.06 1895.76 257.393 1892.54 254.503 1890.91C253.057 1893.67 249.01 1899.87 240.925 1901.99C230.669 1904.67 221.999 1898.67 221.634 1898.41C221.365 1898.22 221.183 1897.93 221.127 1897.61C221.071 1897.28 221.146 1896.95 221.336 1896.68C221.525 1896.41 221.814 1896.23 222.138 1896.17C222.463 1896.12 222.796 1896.19 223.065 1896.38C223.145 1896.44 231.179 1901.98 240.297 1899.59C249.349 1897.22 252.792 1888.74 252.827 1888.66C252.897 1888.48 253.007 1888.32 253.15 1888.19C253.293 1888.06 253.463 1887.97 253.648 1887.92C253.833 1887.87 254.026 1887.86 254.214 1887.9C254.402 1887.93 254.579 1888.01 254.731 1888.13C254.805 1888.18 262.551 1893.85 276.117 1890.3C289.629 1886.76 292.982 1878.24 293.011 1878.15C293.087 1877.95 293.215 1877.77 293.383 1877.63C293.551 1877.49 293.752 1877.4 293.966 1877.36C294.181 1877.33 294.401 1877.35 294.605 1877.42C294.81 1877.5 294.991 1877.62 295.13 1877.79C295.337 1878.04 300.412 1883.92 309.778 1881.47C319.241 1878.99 321.14 1871.01 321.155 1870.93C321.191 1870.77 321.258 1870.62 321.351 1870.49C321.445 1870.35 321.564 1870.24 321.702 1870.15C321.84 1870.06 321.993 1870.01 322.154 1869.98C322.314 1869.95 322.479 1869.95 322.638 1869.99C322.797 1870.02 322.947 1870.09 323.081 1870.18C323.214 1870.28 323.327 1870.4 323.415 1870.54C323.502 1870.67 323.561 1870.83 323.589 1870.99C323.617 1871.15 323.613 1871.31 323.577 1871.47C323.486 1871.86 321.312 1881.01 310.406 1883.87C302.264 1886 296.861 1882.64 294.524 1880.65C292.81 1883.6 288.022 1889.75 276.745 1892.7Z" fill="white"/>
<path d="M307.593 1961.12L278.714 1968.66L268.081 1943.83L304.741 1934.27L307.593 1961.12Z" fill="url(#paint13_linear_547_1158)"/>
<path d="M273.901 1942.34L272.075 1949.01L267.212 1944.09L273.901 1942.34Z" fill="#FF9400"/>
<path d="M281.832 1940.26L280.003 1946.94L275.136 1942.01L281.832 1940.26Z" fill="#FF9400"/>
<path d="M289.758 1938.18L287.928 1944.86L283.064 1939.94L289.758 1938.18Z" fill="#FF9400"/>
<path d="M297.684 1936.11L295.856 1942.78L290.995 1937.86L297.684 1936.11Z" fill="#FF9400"/>
<path d="M305.611 1934.03L303.787 1940.71L298.921 1935.78L305.611 1934.03Z" fill="#FF9400"/>
<path d="M221.669 1900.22C220.677 1900.48 219.624 1900.35 218.723 1899.86C217.821 1899.38 217.138 1898.57 216.81 1897.6C216.482 1896.63 216.534 1895.57 216.956 1894.63C217.377 1893.7 218.137 1892.96 219.082 1892.56C227.817 1888.9 243.961 1883.05 271.268 1875.92C298.348 1868.85 315.392 1866.03 324.913 1864.91C325.98 1864.78 327.053 1865.09 327.896 1865.75C328.739 1866.42 329.283 1867.39 329.409 1868.46C329.534 1869.52 329.231 1870.6 328.565 1871.44C327.9 1872.28 326.927 1872.83 325.86 1872.95C318.265 1873.85 301.348 1876.44 273.307 1883.76C245.046 1891.13 229.163 1897.13 222.212 1900.04C222.035 1900.11 221.853 1900.17 221.669 1900.22Z" fill="#FF9400"/>
<path style="mix-blend-mode:screen" d="M229.92 1897.61C229.748 1898.23 229.506 1898.83 229.198 1899.4C228.207 1901.19 226.567 1902.55 224.612 1903.18C222.657 1903.81 220.536 1903.67 218.681 1902.79C216.826 1901.9 215.378 1900.35 214.632 1898.43C213.886 1896.52 213.898 1894.39 214.667 1892.49C215.436 1890.59 216.902 1889.05 218.768 1888.19C220.633 1887.33 222.756 1887.21 224.703 1887.87C226.65 1888.52 228.274 1889.89 229.244 1891.7C230.214 1893.51 230.456 1895.62 229.92 1897.61Z" fill="url(#paint14_radial_547_1158)"/>
<path d="M224.174 1896.46C223.943 1896.85 223.6 1897.17 223.189 1897.37C222.778 1897.57 222.317 1897.64 221.865 1897.58C221.412 1897.51 220.988 1897.32 220.647 1897.02C220.305 1896.71 220.061 1896.32 219.945 1895.87C219.829 1895.43 219.847 1894.97 219.996 1894.53C220.146 1894.1 220.419 1893.72 220.783 1893.45C221.147 1893.17 221.585 1893.01 222.041 1892.98C222.497 1892.95 222.951 1893.06 223.345 1893.29C223.607 1893.45 223.837 1893.65 224.02 1893.89C224.204 1894.13 224.338 1894.41 224.415 1894.7C224.492 1895 224.51 1895.3 224.469 1895.6C224.427 1895.9 224.327 1896.19 224.174 1896.46Z" fill="white"/>
<path style="mix-blend-mode:screen" d="M330.646 1871.22C330.476 1871.85 330.234 1872.45 329.925 1873.01C328.935 1874.81 327.295 1876.17 325.339 1876.8C323.384 1877.43 321.26 1877.29 319.403 1876.41C317.546 1875.53 316.096 1873.98 315.347 1872.06C314.599 1870.15 314.61 1868.02 315.378 1866.11C316.146 1864.21 317.613 1862.67 319.479 1861.81C321.345 1860.94 323.469 1860.83 325.418 1861.48C327.367 1862.13 328.993 1863.5 329.965 1865.31C330.937 1867.13 331.18 1869.24 330.646 1871.22Z" fill="url(#paint15_radial_547_1158)"/>
<path d="M324.901 1870.07C324.67 1870.47 324.327 1870.78 323.916 1870.98C323.505 1871.18 323.044 1871.26 322.591 1871.19C322.138 1871.13 321.714 1870.94 321.372 1870.63C321.03 1870.33 320.786 1869.93 320.67 1869.49C320.554 1869.05 320.572 1868.58 320.722 1868.15C320.871 1867.72 321.145 1867.34 321.509 1867.06C321.873 1866.79 322.311 1866.63 322.767 1866.6C323.224 1866.57 323.678 1866.68 324.072 1866.91C324.601 1867.22 324.986 1867.73 325.141 1868.32C325.296 1868.91 325.21 1869.54 324.901 1870.07Z" fill="white"/>
<path style="mix-blend-mode:screen" d="M260.167 1887.26C259.751 1888.8 258.889 1890.17 257.689 1891.22C256.489 1892.27 255.006 1892.93 253.428 1893.14C251.849 1893.34 250.245 1893.07 248.82 1892.36C247.394 1891.65 246.211 1890.54 245.419 1889.16C244.627 1887.78 244.262 1886.19 244.371 1884.61C244.479 1883.02 245.057 1881.5 246.029 1880.24C247.002 1878.98 248.326 1878.03 249.835 1877.53C251.344 1877.02 252.969 1876.97 254.505 1877.39C256.559 1877.96 258.305 1879.31 259.365 1881.16C260.425 1883.01 260.713 1885.2 260.167 1887.26Z" fill="url(#paint16_radial_547_1158)"/>
<path d="M254.425 1886.11C254.194 1886.5 253.852 1886.82 253.441 1887.02C253.03 1887.22 252.569 1887.29 252.117 1887.23C251.664 1887.17 251.24 1886.97 250.898 1886.67C250.556 1886.37 250.312 1885.97 250.197 1885.53C250.081 1885.09 250.099 1884.62 250.248 1884.19C250.397 1883.76 250.671 1883.38 251.035 1883.1C251.399 1882.83 251.837 1882.67 252.293 1882.64C252.749 1882.61 253.203 1882.72 253.597 1882.95C253.859 1883.1 254.088 1883.31 254.272 1883.55C254.455 1883.79 254.589 1884.07 254.666 1884.36C254.743 1884.65 254.761 1884.96 254.72 1885.26C254.678 1885.56 254.578 1885.85 254.425 1886.11Z" fill="white"/>
<path style="mix-blend-mode:screen" d="M301.737 1876.37C301.321 1877.91 300.458 1879.29 299.259 1880.33C298.059 1881.38 296.576 1882.05 294.998 1882.25C293.419 1882.45 291.816 1882.18 290.39 1881.48C288.964 1880.77 287.781 1879.65 286.988 1878.27C286.196 1876.89 285.831 1875.31 285.94 1873.72C286.048 1872.13 286.625 1870.61 287.597 1869.35C288.57 1868.09 289.894 1867.15 291.403 1866.64C292.911 1866.13 294.537 1866.08 296.073 1866.5C297.096 1866.77 298.055 1867.24 298.894 1867.89C299.734 1868.53 300.437 1869.34 300.964 1870.25C301.491 1871.17 301.83 1872.19 301.963 1873.24C302.095 1874.29 302.018 1875.35 301.737 1876.37Z" fill="url(#paint17_radial_547_1158)"/>
<path d="M295.994 1875.22C295.763 1875.62 295.421 1875.93 295.01 1876.13C294.6 1876.33 294.139 1876.41 293.686 1876.34C293.233 1876.28 292.809 1876.09 292.468 1875.78C292.126 1875.48 291.882 1875.08 291.766 1874.64C291.65 1874.2 291.668 1873.73 291.817 1873.3C291.967 1872.87 292.241 1872.49 292.605 1872.22C292.969 1871.94 293.406 1871.78 293.863 1871.75C294.319 1871.72 294.772 1871.83 295.167 1872.06C295.429 1872.22 295.658 1872.42 295.841 1872.66C296.024 1872.9 296.158 1873.18 296.235 1873.47C296.312 1873.76 296.33 1874.07 296.289 1874.37C296.247 1874.67 296.147 1874.96 295.994 1875.22Z" fill="white"/>
</g>
<g clip-path="url(#clip3_547_1158)">
<path d="M2106.9 1262.69C2082.83 1119.78 1947.5 1023.41 1804.57 1047.46C1661.65 1071.5 1565.29 1206.86 1589.32 1349.76C1599.12 1408.46 1628.68 1462.06 1673.09 1501.68L1672.85 1501.72C1672.85 1501.72 1826.32 1617.02 1833.84 1641.62L1962.81 1619.91C1961.86 1594.2 2077.52 1433.62 2077.52 1433.62L2077.46 1433.63C2106.45 1381.67 2116.84 1321.36 2106.9 1262.69Z" fill="url(#paint18_linear_547_1158)"/>
<mask id="mask2_547_1158" style="mask-type:luminance" maskUnits="userSpaceOnUse" x="1585" y="1043" width="526" height="599">
<path d="M2106.9 1262.69C2082.83 1119.78 1947.5 1023.41 1804.57 1047.46C1661.65 1071.5 1565.29 1206.86 1589.32 1349.76C1599.12 1408.46 1628.68 1462.06 1673.09 1501.68L1672.85 1501.72C1672.85 1501.72 1826.32 1617.02 1833.84 1641.62L1962.81 1619.91C1961.86 1594.2 2077.52 1433.62 2077.52 1433.62L2077.46 1433.63C2106.45 1381.67 2116.84 1321.36 2106.9 1262.69Z" fill="white"/>
</mask>
<g mask="url(#mask2_547_1158)">
<path d="M1809.13 1434.78C1756.14 1250.05 1778.21 1107.8 1795.26 1041.3C1768.62 1047.13 1742.99 1056.86 1719.2 1070.18C1683.04 1132.06 1657.42 1248.11 1694.02 1465.59L1809.13 1434.78Z" fill="#FF9400"/>
<path d="M1942.65 1412.3L2061.5 1403.73C2025.5 1189.76 1964.72 1088.32 1910.95 1040.71C1883.42 1034.97 1855.17 1033.48 1827.19 1036.28C1865.11 1093.7 1932.3 1220.76 1942.65 1412.3Z" fill="#FF9400"/>
<path d="M2152.33 1394.85C2156.16 1363.06 2155.39 1330.89 2150.05 1299.33C2127.57 1165.81 2029.23 1065.35 1910.95 1040.71C1964.07 1087.74 2023.97 1187.34 2060.14 1395.9C2091.53 1394.08 2122.44 1393.63 2152.33 1394.85Z" fill="url(#paint19_linear_547_1158)"/>
<path d="M1693.21 1460.58C1657.86 1246.36 1683.32 1131.58 1719.2 1070.18C1611.25 1130.58 1547.92 1260.26 1570.89 1396.78C1576.15 1428.24 1585.9 1458.78 1599.85 1487.47C1624.46 1479.87 1656.32 1470.47 1693.21 1460.58Z" fill="url(#paint20_linear_547_1158)"/>
<path d="M1942.39 1408.15C1931.29 1218.95 1864.83 1093.27 1827.19 1036.3C1820.95 1036.92 1814.69 1037.67 1808.43 1038.73C1804 1039.48 1799.63 1040.36 1795.26 1041.3C1778.28 1107.52 1756.33 1248.92 1808.52 1432.58C1851.11 1423.35 1896.38 1414.82 1942.39 1408.15Z" fill="url(#paint21_radial_547_1158)"/>
</g>
<path opacity="0.2" d="M1748.05 1253.23C1723.96 1314.91 1679.58 1355.21 1648.91 1343.22C1618.24 1331.23 1612.87 1271.55 1636.94 1209.84C1661.02 1148.13 1705.41 1107.85 1736.08 1119.85C1766.75 1131.86 1772.11 1191.56 1748.05 1253.23Z" fill="white"/>
<path d="M1980.9 1618.25C1981.17 1619.84 1981.12 1621.47 1980.76 1623.04C1980.41 1624.61 1979.74 1626.09 1978.81 1627.41C1977.88 1628.72 1976.69 1629.84 1975.33 1630.7C1973.96 1631.56 1972.44 1632.14 1970.85 1632.41L1832.55 1655.81C1830.96 1656.08 1829.33 1656.03 1827.76 1655.67C1826.19 1655.31 1824.7 1654.65 1823.39 1653.71C1822.08 1652.78 1820.96 1651.59 1820.1 1650.23C1819.25 1648.86 1818.67 1647.34 1818.4 1645.75L1817.61 1641.09C1817.07 1637.88 1817.82 1634.59 1819.71 1631.93C1821.59 1629.28 1824.45 1627.48 1827.66 1626.94L1965.97 1603.53C1969.18 1602.99 1972.47 1603.75 1975.12 1605.63C1977.77 1607.52 1979.56 1610.38 1980.11 1613.59L1980.9 1618.25Z" fill="#FF9400"/>
<path d="M1878.75 1698.23L1781.85 1446.7L1790.68 1444.13L1887.57 1695.67L1878.75 1698.23Z" fill="white"/>
<path d="M1865.9 1709.47L1649.82 1483.55L1656.47 1477.2L1872.55 1703.12L1865.9 1709.47Z" fill="white"/>
<path d="M1945.14 1687L1935.96 1687.48L1955.52 1416.24L1964.7 1415.76L1945.14 1687Z" fill="white"/>
<path d="M1960.97 1693.38L1952.61 1689.57L2082.32 1405.13L2090.68 1408.95L1960.97 1693.38Z" fill="white"/>
<path d="M1882.38 1481.14C1832.72 1489.54 1802.06 1473.33 1790.66 1465.49C1783.64 1476.45 1764.54 1500.7 1730.18 1506.51C1686.6 1513.89 1652.8 1485.74 1651.38 1484.54C1650.34 1483.65 1649.68 1482.38 1649.57 1481.02C1649.46 1479.65 1649.89 1478.29 1650.78 1477.25C1651.67 1476.2 1652.93 1475.55 1654.3 1475.43C1655.67 1475.32 1657.03 1475.76 1658.07 1476.64C1658.39 1476.91 1689.71 1502.87 1728.46 1496.31C1766.93 1489.8 1784.35 1455.87 1784.53 1455.54C1784.89 1454.82 1785.41 1454.19 1786.05 1453.71C1786.69 1453.23 1787.43 1452.91 1788.22 1452.76C1789 1452.62 1789.81 1452.67 1790.57 1452.89C1791.34 1453.11 1792.04 1453.5 1792.64 1454.03C1792.92 1454.29 1823 1480.7 1880.66 1470.95C1938.08 1461.23 1955.15 1427.08 1955.3 1426.72C1955.69 1425.9 1956.29 1425.2 1957.04 1424.69C1957.79 1424.17 1958.65 1423.86 1959.56 1423.79C1960.46 1423.72 1961.37 1423.88 1962.19 1424.27C1963.01 1424.66 1963.72 1425.25 1964.23 1426C1965 1427.12 1983.91 1453.42 2023.72 1446.69C2063.93 1439.88 2074.76 1407.42 2074.86 1407.09C2075.06 1406.45 2075.39 1405.85 2075.83 1405.33C2076.27 1404.81 2076.81 1404.38 2077.41 1404.07C2078.02 1403.76 2078.68 1403.57 2079.35 1403.51C2080.03 1403.45 2080.71 1403.53 2081.36 1403.74C2082.01 1403.94 2082.61 1404.28 2083.13 1404.71C2083.65 1405.15 2084.07 1405.69 2084.38 1406.29C2084.7 1406.9 2084.89 1407.56 2084.94 1408.23C2085 1408.91 2084.92 1409.59 2084.72 1410.24C2084.19 1411.82 2071.79 1449.03 2025.44 1456.88C1990.84 1462.73 1969.64 1446.78 1960.66 1437.67C1952.45 1449.29 1930.31 1473.03 1882.38 1481.14Z" fill="white"/>
<path d="M1985.27 1776.68L1862.55 1797.34L1827.54 1690.32L1983.33 1664.11L1985.27 1776.68Z" fill="url(#paint22_linear_547_1158)"/>
<path d="M1852.27 1686.25L1842.22 1713.3L1823.84 1691.06L1852.27 1686.25Z" fill="#FF9400"/>
<path d="M1885.97 1680.55L1875.92 1707.6L1857.52 1685.36L1885.97 1680.55Z" fill="#FF9400"/>
<path d="M1919.66 1674.85L1909.59 1701.9L1891.21 1679.66L1919.66 1674.85Z" fill="#FF9400"/>
<path d="M1650.86 1492.08C1646.64 1492.78 1642.32 1491.86 1638.76 1489.51C1635.19 1487.15 1632.65 1483.53 1631.65 1479.38C1630.64 1475.23 1631.25 1470.85 1633.35 1467.12C1635.44 1463.4 1638.87 1460.61 1642.94 1459.31C1680.57 1447.33 1749.78 1428.96 1865.82 1409.42C1980.9 1390.06 2052.72 1384.63 2092.68 1383.47C2097.16 1383.35 2101.5 1385 2104.76 1388.08C2108.02 1391.15 2109.92 1395.4 2110.05 1399.87C2110.17 1404.35 2108.52 1408.7 2105.44 1411.95C2102.37 1415.21 2098.13 1417.11 2093.65 1417.24C2061.77 1418.17 1990.56 1422.69 1871.4 1442.74C1751.3 1462.95 1683.13 1481.98 1653.18 1491.51C1652.42 1491.75 1651.64 1491.94 1650.86 1492.08Z" fill="#FF9400"/>
<path style="mix-blend-mode:screen" d="M1686.09 1484.26C1685.15 1486.78 1683.92 1489.18 1682.43 1491.42C1677.65 1498.53 1670.34 1503.54 1661.99 1505.44C1653.64 1507.33 1644.88 1505.97 1637.5 1501.62C1630.12 1497.28 1624.68 1490.28 1622.29 1482.06C1619.9 1473.84 1620.73 1465.01 1624.63 1457.39C1628.52 1449.76 1635.18 1443.91 1643.25 1441.03C1651.31 1438.14 1660.17 1438.45 1668.01 1441.88C1675.86 1445.31 1682.1 1451.61 1685.46 1459.48C1688.82 1467.36 1689.05 1476.22 1686.09 1484.26Z" fill="url(#paint23_radial_547_1158)"/>
<path d="M1662.65 1477.36C1661.55 1478.91 1660.01 1480.1 1658.23 1480.78C1656.45 1481.46 1654.5 1481.59 1652.65 1481.16C1650.79 1480.74 1649.1 1479.77 1647.79 1478.39C1646.49 1477 1645.62 1475.26 1645.3 1473.38C1644.98 1471.5 1645.23 1469.57 1646.01 1467.84C1646.79 1466.1 1648.06 1464.63 1649.68 1463.62C1651.29 1462.6 1653.17 1462.09 1655.07 1462.15C1656.98 1462.2 1658.82 1462.82 1660.38 1463.92C1661.41 1464.65 1662.29 1465.58 1662.96 1466.65C1663.63 1467.72 1664.09 1468.92 1664.3 1470.17C1664.51 1471.42 1664.47 1472.69 1664.19 1473.93C1663.91 1475.16 1663.38 1476.33 1662.65 1477.36Z" fill="white"/>
<path style="mix-blend-mode:screen" d="M1815.53 1452.43C1813.24 1458.66 1809.15 1464.07 1803.78 1467.97C1798.41 1471.87 1792.01 1474.1 1785.37 1474.36C1778.74 1474.62 1772.18 1472.91 1766.52 1469.45C1760.86 1465.98 1756.36 1460.91 1753.58 1454.89C1750.8 1448.86 1749.87 1442.14 1750.9 1435.59C1751.94 1429.03 1754.9 1422.93 1759.4 1418.06C1763.91 1413.18 1769.76 1409.75 1776.21 1408.2C1782.66 1406.65 1789.43 1407.05 1795.66 1409.35C1803.98 1412.47 1810.73 1418.74 1814.45 1426.81C1818.17 1434.87 1818.56 1444.08 1815.53 1452.43Z" fill="url(#paint24_radial_547_1158)"/>
<path d="M1792.11 1445.54C1791 1447.09 1789.47 1448.28 1787.69 1448.96C1785.91 1449.64 1783.96 1449.78 1782.11 1449.35C1780.25 1448.93 1778.56 1447.96 1777.25 1446.58C1775.95 1445.19 1775.08 1443.45 1774.76 1441.57C1774.44 1439.69 1774.69 1437.76 1775.47 1436.02C1776.25 1434.29 1777.52 1432.82 1779.14 1431.81C1780.75 1430.79 1782.63 1430.28 1784.53 1430.34C1786.44 1430.39 1788.28 1431.01 1789.84 1432.12C1790.87 1432.85 1791.74 1433.78 1792.42 1434.85C1793.09 1435.92 1793.54 1437.11 1793.75 1438.36C1793.97 1439.6 1793.93 1440.88 1793.65 1442.11C1793.36 1443.34 1792.84 1444.51 1792.11 1445.54Z" fill="white"/>
</g>
<g clip-path="url(#clip4_547_1158)">
<path d="M1698.84 2259.14C1712.18 2230.69 1699.94 2196.8 1671.48 2183.45C1643.03 2170.1 1609.14 2182.35 1595.79 2210.8C1590.3 2222.48 1588.95 2235.68 1591.98 2248.23L1591.94 2248.21C1591.94 2248.21 1605.08 2287.71 1603.38 2293.03L1629.06 2305.07C1632.07 2300.37 1672.51 2286 1672.51 2286L1672.49 2286C1684.08 2280.31 1693.37 2270.83 1698.84 2259.14Z" fill="url(#paint25_linear_547_1158)"/>
<mask id="mask3_547_1158" style="mask-type:luminance" maskUnits="userSpaceOnUse" x="1590" y="2178" width="115" height="128">
<path d="M1698.84 2259.14C1712.18 2230.69 1699.94 2196.8 1671.48 2183.45C1643.03 2170.1 1609.14 2182.35 1595.79 2210.8C1590.3 2222.48 1588.95 2235.68 1591.98 2248.23L1591.94 2248.21C1591.94 2248.21 1605.08 2287.71 1603.38 2293.03L1629.06 2305.07C1632.07 2300.37 1672.51 2286 1672.51 2286L1672.49 2286C1684.08 2280.31 1693.37 2270.83 1698.84 2259.14Z" fill="white"/>
</mask>
<g mask="url(#mask3_547_1158)">
<path d="M1624.5 2253.09C1637.85 2213.61 1659.34 2190.96 1670.58 2181.21C1665.11 2178.96 1659.34 2177.53 1653.45 2176.97C1639.37 2183.54 1620.48 2201.08 1600.17 2244.38L1624.5 2253.09Z" fill="#FF9400"/>
<path d="M1651.09 2265.56L1673.34 2278.69C1693.32 2236.09 1695 2210.5 1691.29 2195.37C1687.09 2190.95 1682.23 2187.2 1676.9 2184.25C1676.58 2199.17 1672.88 2230.12 1651.09 2265.56Z" fill="#FF9400"/>
<path d="M1690.63 2288.32C1695.24 2283.12 1699.07 2277.29 1702.01 2271C1714.48 2244.42 1709.34 2214.37 1691.29 2195.38C1694.96 2210.32 1693.35 2235.47 1674.06 2277.13C1679.88 2280.68 1685.45 2284.41 1690.63 2288.32Z" fill="url(#paint26_linear_547_1158)"/>
<path d="M1600.65 2243.38C1620.78 2200.82 1639.48 2183.49 1653.45 2176.97C1626.75 2174.42 1599.45 2189.73 1586.7 2216.91C1583.76 2223.17 1581.73 2229.82 1580.68 2236.66C1586 2238.34 1592.84 2240.6 1600.65 2243.38Z" fill="url(#paint27_linear_547_1158)"/>
<path d="M1651.55 2264.78C1672.92 2229.67 1676.58 2199.06 1676.89 2184.25C1675.7 2183.59 1674.5 2182.96 1673.25 2182.37C1672.37 2181.96 1671.48 2181.57 1670.58 2181.21C1659.38 2190.92 1638.02 2213.43 1624.66 2252.62C1633.4 2256.23 1642.52 2260.3 1651.55 2264.78Z" fill="url(#paint28_radial_547_1158)"/>
</g>
<path opacity="0.2" d="M1636.01 2213.17C1624.1 2221.2 1611.22 2222.91 1607.23 2216.99C1603.24 2211.07 1609.64 2199.76 1621.55 2191.73C1633.46 2183.69 1646.35 2181.99 1650.34 2187.91C1654.32 2193.84 1647.91 2205.14 1636.01 2213.17Z" fill="white"/>
<path d="M1632.49 2307C1632.35 2307.32 1632.14 2307.61 1631.88 2307.84C1631.62 2308.08 1631.32 2308.26 1630.99 2308.38C1630.66 2308.5 1630.31 2308.55 1629.96 2308.54C1629.61 2308.52 1629.27 2308.44 1628.96 2308.29L1601.4 2295.4C1601.08 2295.25 1600.8 2295.04 1600.56 2294.78C1600.33 2294.52 1600.15 2294.22 1600.03 2293.89C1599.91 2293.56 1599.86 2293.21 1599.87 2292.86C1599.89 2292.52 1599.97 2292.17 1600.12 2291.86L1600.56 2290.93C1600.85 2290.29 1601.4 2289.79 1602.06 2289.55C1602.72 2289.31 1603.45 2289.35 1604.09 2289.64L1631.65 2302.54C1632.29 2302.84 1632.78 2303.38 1633.02 2304.04C1633.26 2304.7 1633.23 2305.44 1632.93 2306.08L1632.49 2307Z" fill="#FF9400"/>
<path d="M1604.41 2308.66L1618.17 2251.85L1620.06 2252.48L1606.3 2309.29L1604.41 2308.66Z" fill="white"/>
<path d="M1600.73 2309.08L1590.07 2242.13L1592.04 2241.81L1602.7 2308.77L1600.73 2309.08Z" fill="white"/>
<path d="M1617.63 2314.85L1615.94 2313.81L1652.9 2267.85L1654.59 2268.89L1617.63 2314.85Z" fill="white"/>
<path d="M1619.67 2317.94L1618.65 2316.23L1676.88 2281.51L1677.9 2283.22L1619.67 2317.94Z" fill="white"/>
<path d="M1631.84 2270.4C1621.95 2265.77 1618.48 2259.09 1617.42 2256.29C1614.81 2257.37 1608.42 2259.34 1601.57 2256.14C1592.89 2252.08 1590.33 2242.89 1590.23 2242.5C1590.15 2242.21 1590.19 2241.9 1590.34 2241.64C1590.49 2241.39 1590.73 2241.2 1591.02 2241.12C1591.31 2241.04 1591.61 2241.08 1591.87 2241.23C1592.13 2241.38 1592.32 2241.63 1592.4 2241.91C1592.42 2242 1594.8 2250.5 1602.52 2254.11C1610.19 2257.69 1617.48 2253.79 1617.55 2253.75C1617.7 2253.67 1617.87 2253.62 1618.05 2253.62C1618.22 2253.61 1618.39 2253.64 1618.55 2253.71C1618.71 2253.79 1618.85 2253.89 1618.96 2254.03C1619.07 2254.16 1619.14 2254.32 1619.18 2254.49C1619.2 2254.57 1621.31 2262.99 1632.79 2268.36C1644.23 2273.72 1651.49 2269.73 1651.56 2269.69C1651.73 2269.59 1651.93 2269.54 1652.12 2269.54C1652.32 2269.54 1652.51 2269.59 1652.68 2269.69C1652.85 2269.79 1653 2269.93 1653.09 2270.1C1653.19 2270.27 1653.25 2270.47 1653.25 2270.66C1653.24 2270.96 1653.37 2277.98 1661.3 2281.69C1669.31 2285.44 1675.25 2280.99 1675.31 2280.94C1675.42 2280.85 1675.56 2280.79 1675.7 2280.75C1675.84 2280.71 1675.99 2280.7 1676.14 2280.72C1676.28 2280.74 1676.42 2280.78 1676.55 2280.86C1676.68 2280.93 1676.79 2281.03 1676.88 2281.15C1676.97 2281.26 1677.04 2281.4 1677.07 2281.54C1677.11 2281.68 1677.12 2281.83 1677.1 2281.97C1677.09 2282.12 1677.04 2282.26 1676.96 2282.39C1676.89 2282.52 1676.79 2282.63 1676.68 2282.72C1676.39 2282.94 1669.58 2288.04 1660.35 2283.72C1653.46 2280.5 1651.64 2275.04 1651.17 2272.3C1648.27 2273.36 1641.39 2274.86 1631.84 2270.4Z" fill="white"/>
<path d="M1613.72 2335.8L1589.29 2324.34L1596.25 2300.93L1627.27 2315.48L1613.72 2335.8Z" fill="url(#paint29_linear_547_1158)"/>
<path d="M1601.16 2303.26L1596.03 2306.84L1595.5 2300.61L1601.16 2303.26Z" fill="#FF9400"/>
<path d="M1607.88 2306.4L1602.75 2309.98L1602.21 2303.75L1607.88 2306.4Z" fill="#FF9400"/>
<path d="M1614.59 2309.54L1609.45 2313.12L1608.92 2306.89L1614.59 2309.54Z" fill="#FF9400"/>
<path d="M1621.3 2312.68L1616.17 2316.26L1615.63 2310.03L1621.3 2312.68Z" fill="#FF9400"/>
<path d="M1628.01 2315.82L1622.88 2319.41L1622.35 2313.17L1628.01 2315.82Z" fill="#FF9400"/>
<path d="M1589.2 2243.78C1588.37 2243.38 1587.71 2242.68 1587.36 2241.82C1587.02 2240.96 1587.01 2240.01 1587.35 2239.14C1587.68 2238.28 1588.33 2237.57 1589.16 2237.16C1589.99 2236.76 1590.95 2236.68 1591.84 2236.96C1600.02 2239.46 1614.63 2244.73 1637.74 2255.56C1660.65 2266.31 1674.13 2274.2 1681.4 2278.93C1682.21 2279.46 1682.78 2280.29 1682.99 2281.24C1683.19 2282.19 1683 2283.18 1682.47 2284C1681.94 2284.81 1681.11 2285.38 1680.16 2285.58C1679.21 2285.78 1678.22 2285.6 1677.41 2285.07C1671.61 2281.3 1658.35 2273.32 1634.62 2262.19C1610.71 2250.98 1596.21 2245.96 1589.69 2243.96C1589.52 2243.91 1589.36 2243.85 1589.2 2243.78Z" fill="#FF9400"/>
<path style="mix-blend-mode:screen" d="M1596.45 2246.73C1595.97 2247.06 1595.46 2247.34 1594.92 2247.56C1593.19 2248.23 1591.26 2248.22 1589.54 2247.53C1587.82 2246.84 1586.42 2245.52 1585.64 2243.83C1584.86 2242.14 1584.76 2240.23 1585.35 2238.46C1585.93 2236.7 1587.17 2235.23 1588.81 2234.35C1590.44 2233.47 1592.35 2233.25 1594.15 2233.73C1595.94 2234.21 1597.48 2235.36 1598.46 2236.94C1599.43 2238.52 1599.77 2240.41 1599.4 2242.23C1599.02 2244.05 1597.97 2245.66 1596.45 2246.73Z" fill="url(#paint30_radial_547_1158)"/>
<path d="M1593.12 2242.61C1592.74 2242.75 1592.31 2242.77 1591.91 2242.67C1591.51 2242.57 1591.15 2242.36 1590.87 2242.05C1590.59 2241.75 1590.41 2241.36 1590.35 2240.96C1590.29 2240.55 1590.35 2240.13 1590.52 2239.76C1590.7 2239.38 1590.98 2239.07 1591.33 2238.85C1591.68 2238.64 1592.09 2238.54 1592.51 2238.55C1592.92 2238.57 1593.32 2238.71 1593.65 2238.96C1593.98 2239.2 1594.24 2239.54 1594.38 2239.93C1594.47 2240.19 1594.51 2240.46 1594.5 2240.73C1594.49 2241.01 1594.42 2241.28 1594.31 2241.53C1594.19 2241.78 1594.02 2242 1593.82 2242.18C1593.62 2242.37 1593.38 2242.51 1593.12 2242.61Z" fill="white"/>
<path style="mix-blend-mode:screen" d="M1681.73 2286.63C1681.26 2286.97 1680.74 2287.25 1680.2 2287.46C1678.47 2288.14 1676.54 2288.13 1674.82 2287.44C1673.09 2286.75 1671.7 2285.43 1670.92 2283.74C1670.13 2282.06 1670.03 2280.13 1670.61 2278.37C1671.2 2276.61 1672.44 2275.14 1674.07 2274.25C1675.71 2273.37 1677.62 2273.15 1679.42 2273.63C1681.21 2274.11 1682.76 2275.26 1683.73 2276.84C1684.71 2278.42 1685.05 2280.31 1684.68 2282.13C1684.31 2283.95 1683.25 2285.56 1681.73 2286.63Z" fill="url(#paint31_radial_547_1158)"/>
<path d="M1678.41 2282.51C1678.02 2282.65 1677.6 2282.68 1677.19 2282.58C1676.79 2282.48 1676.43 2282.26 1676.15 2281.96C1675.87 2281.65 1675.69 2281.27 1675.63 2280.86C1675.57 2280.45 1675.63 2280.04 1675.8 2279.66C1675.98 2279.29 1676.26 2278.97 1676.61 2278.76C1676.97 2278.54 1677.37 2278.44 1677.79 2278.46C1678.2 2278.48 1678.6 2278.62 1678.93 2278.86C1679.26 2279.11 1679.52 2279.45 1679.66 2279.83C1679.85 2280.36 1679.82 2280.93 1679.59 2281.43C1679.35 2281.93 1678.93 2282.32 1678.41 2282.51Z" fill="white"/>
<path style="mix-blend-mode:screen" d="M1623.46 2257.03C1622.29 2257.85 1620.89 2258.31 1619.45 2258.35C1618.01 2258.38 1616.6 2257.99 1615.38 2257.22C1614.17 2256.44 1613.21 2255.33 1612.62 2254.01C1612.04 2252.7 1611.86 2251.24 1612.11 2249.82C1612.36 2248.4 1613.02 2247.09 1614.02 2246.05C1615.01 2245.01 1616.29 2244.28 1617.7 2243.97C1619.1 2243.66 1620.57 2243.77 1621.91 2244.29C1623.25 2244.81 1624.41 2245.71 1625.24 2246.89C1626.34 2248.47 1626.77 2250.42 1626.43 2252.32C1626.1 2254.22 1625.03 2255.91 1623.46 2257.03Z" fill="url(#paint32_radial_547_1158)"/>
<path d="M1620.14 2252.91C1619.75 2253.05 1619.33 2253.07 1618.93 2252.97C1618.53 2252.87 1618.16 2252.66 1617.88 2252.35C1617.6 2252.05 1617.42 2251.67 1617.36 2251.26C1617.3 2250.85 1617.36 2250.43 1617.53 2250.06C1617.71 2249.68 1617.99 2249.37 1618.34 2249.16C1618.7 2248.94 1619.11 2248.84 1619.52 2248.86C1619.93 2248.88 1620.33 2249.02 1620.66 2249.26C1621 2249.51 1621.25 2249.84 1621.39 2250.23C1621.48 2250.49 1621.52 2250.76 1621.51 2251.04C1621.5 2251.31 1621.43 2251.58 1621.32 2251.83C1621.2 2252.08 1621.04 2252.3 1620.83 2252.49C1620.63 2252.67 1620.4 2252.81 1620.14 2252.91Z" fill="white"/>
<path style="mix-blend-mode:screen" d="M1658.66 2273.5C1657.48 2274.32 1656.09 2274.78 1654.65 2274.82C1653.21 2274.85 1651.79 2274.46 1650.58 2273.69C1649.36 2272.91 1648.4 2271.8 1647.82 2270.48C1647.24 2269.17 1647.06 2267.71 1647.31 2266.29C1647.55 2264.87 1648.22 2263.56 1649.21 2262.52C1650.2 2261.48 1651.48 2260.75 1652.89 2260.44C1654.29 2260.13 1655.76 2260.24 1657.1 2260.75C1658.44 2261.27 1659.6 2262.18 1660.43 2263.36C1660.98 2264.14 1661.38 2265.02 1661.59 2265.95C1661.8 2266.89 1661.82 2267.85 1661.66 2268.8C1661.49 2269.74 1661.14 2270.64 1660.63 2271.45C1660.11 2272.25 1659.45 2272.95 1658.66 2273.5Z" fill="url(#paint33_radial_547_1158)"/>
<path d="M1655.33 2269.38C1654.94 2269.52 1654.52 2269.54 1654.12 2269.44C1653.72 2269.34 1653.36 2269.13 1653.08 2268.82C1652.8 2268.52 1652.62 2268.14 1652.56 2267.73C1652.49 2267.32 1652.55 2266.9 1652.73 2266.53C1652.9 2266.15 1653.19 2265.84 1653.54 2265.63C1653.89 2265.41 1654.3 2265.31 1654.71 2265.33C1655.13 2265.34 1655.52 2265.49 1655.86 2265.73C1656.19 2265.97 1656.44 2266.31 1656.58 2266.7C1656.68 2266.96 1656.72 2267.23 1656.71 2267.51C1656.69 2267.78 1656.63 2268.05 1656.51 2268.3C1656.4 2268.55 1656.23 2268.77 1656.03 2268.95C1655.83 2269.14 1655.59 2269.28 1655.33 2269.38Z" fill="white"/>
</g>
<g clip-path="url(#clip5_547_1158)">
<path d="M134.462 3399.7H129.751V3573.08H134.462V3399.7Z" fill="#FB5733"/>
<path d="M123.316 3412.58V3464.7L239.884 3438.63L123.316 3412.58Z" fill="url(#paint34_linear_547_1158)"/>
<path d="M142.094 3400.29C142.092 3402.32 141.487 3404.31 140.355 3406C139.224 3407.69 137.617 3409.01 135.738 3409.78C133.858 3410.56 131.791 3410.76 129.798 3410.36C127.804 3409.96 125.973 3408.98 124.537 3407.54C123.101 3406.1 122.124 3404.27 121.73 3402.27C121.336 3400.28 121.541 3398.21 122.322 3396.34C123.102 3394.46 124.421 3392.85 126.113 3391.73C127.805 3390.6 129.793 3390 131.826 3390C133.176 3390 134.513 3390.27 135.76 3390.79C137.007 3391.3 138.139 3392.06 139.093 3393.02C140.046 3393.97 140.802 3395.11 141.317 3396.36C141.832 3397.6 142.096 3398.94 142.094 3400.29Z" fill="#FB5733"/>
<path d="M-172.974 4131.75L-60.9471 4131.72C131.737 3808.53 132.12 3488.72 132.12 3488.72C132.12 3488.72 26.6901 4014.79 -172.974 4131.75Z" fill="url(#paint35_linear_547_1158)"/>
<path d="M-60.947 4131.72L325.094 4131.58C132.495 3808.46 132.12 3488.72 132.12 3488.72C132.12 3488.72 131.737 3808.53 -60.947 4131.72Z" fill="url(#paint36_linear_547_1158)"/>
<path d="M132.12 3488.72C132.12 3488.72 132.506 3808.46 325.094 4131.58L436.974 4131.53C237.314 4014.57 132.12 3488.72 132.12 3488.72Z" fill="url(#paint37_linear_547_1158)"/>
<path style="mix-blend-mode:screen" d="M230.075 3821.59L221.083 3781.48L226.493 3773.63C164.064 3643.35 131.784 3500.79 131.784 3500.79C131.784 3500.79 98.5482 3647.55 34.342 3779.35L41.6229 3787.04L34.2261 3821.59C34.2261 3821.59 55.2301 3808.83 131.142 3808.83C207.054 3808.83 230.075 3821.59 230.075 3821.59Z" fill="url(#paint38_linear_547_1158)"/>
<path d="M34.226 3821.59C35.6413 3809.14 34.8287 3796.54 31.826 3784.38C86.1273 3674.68 118.833 3553.09 128.63 3513.78C108.314 3626.51 34.226 3821.59 34.226 3821.59ZM138.029 3526.03C161.143 3640.04 230.075 3821.59 230.075 3821.59C228.702 3809.51 229.432 3797.28 232.232 3785.44C182.417 3685.11 150.681 3574.58 138.029 3526.03Z" fill="url(#paint39_linear_547_1158)"/>
<path d="M131.339 3508.44C107.943 3878.14 49.92 4132 49.92 4132H212.383C212.383 4132 154.724 3878.14 131.339 3508.44Z" fill="url(#paint40_radial_547_1158)"/>
<path style="mix-blend-mode:screen" d="M14.2075 3833.3C15.1926 3835.01 16.3742 3836.59 17.7281 3838.03C22.0494 3842.58 27.9438 3845.3 34.2074 3845.65C40.471 3846 46.6313 3843.94 51.4299 3839.9C56.2286 3835.86 59.3036 3830.14 60.0269 3823.91C60.7501 3817.68 59.0671 3811.41 55.3216 3806.37C51.5761 3801.34 46.0506 3797.93 39.8738 3796.83C33.697 3795.74 27.3348 3797.04 22.0867 3800.48C16.8387 3803.91 13.1007 3809.22 11.6363 3815.32C10.172 3821.42 11.0916 3827.85 14.2075 3833.3Z" fill="url(#paint41_radial_547_1158)"/>
<path d="M30.315 3825.45C31.3025 3826.44 32.5605 3827.11 33.9301 3827.39C35.2997 3827.66 36.7193 3827.52 38.0094 3826.98C39.2995 3826.45 40.4021 3825.54 41.1779 3824.38C41.9536 3823.22 42.3677 3821.86 42.3677 3820.46C42.3677 3819.06 41.9536 3817.7 41.1779 3816.54C40.4021 3815.38 39.2995 3814.47 38.0094 3813.94C36.7193 3813.4 35.2997 3813.26 33.9301 3813.54C32.5605 3813.81 31.3025 3814.48 30.315 3815.47C29.6578 3816.12 29.1364 3816.9 28.7806 3817.76C28.4249 3818.61 28.2417 3819.53 28.2417 3820.46C28.2417 3821.39 28.4249 3822.31 28.7806 3823.16C29.1364 3824.02 29.6578 3824.8 30.315 3825.45Z" fill="white"/>
<path style="mix-blend-mode:screen" d="M16.2751 3794.82C18.0971 3798 20.8193 3800.56 24.0976 3802.19C27.3759 3803.81 31.063 3804.43 34.6929 3803.96C38.3228 3803.5 41.7324 3801.96 44.4907 3799.56C47.249 3797.15 49.2322 3793.98 50.1895 3790.45C51.1467 3786.92 51.0352 3783.18 49.8688 3779.71C48.7025 3776.24 46.5338 3773.2 43.6368 3770.96C40.7399 3768.72 37.2448 3767.4 33.5935 3767.15C29.9421 3766.89 26.2985 3767.73 23.1231 3769.55C21.0026 3770.75 19.1411 3772.36 17.6467 3774.28C16.1524 3776.2 15.0548 3778.41 14.4177 3780.76C13.7806 3783.11 13.6168 3785.56 13.9356 3787.98C14.2545 3790.39 15.0497 3792.72 16.2751 3794.82Z" fill="url(#paint42_radial_547_1158)"/>
<path d="M28.3827 3788.92C29.1255 3789.66 30.0717 3790.17 31.1016 3790.37C32.1315 3790.57 33.1989 3790.47 34.1689 3790.07C35.1389 3789.66 35.9679 3788.98 36.5511 3788.11C37.1344 3787.24 37.4457 3786.21 37.4457 3785.16C37.4457 3784.11 37.1344 3783.08 36.5511 3782.21C35.9679 3781.34 35.1389 3780.66 34.1689 3780.26C33.1989 3779.85 32.1315 3779.75 31.1016 3779.95C30.0717 3780.16 29.1255 3780.66 28.3827 3781.41C27.3868 3782.4 26.8274 3783.75 26.8274 3785.16C26.8274 3786.57 27.3868 3787.92 28.3827 3788.92Z" fill="white"/>
<path style="mix-blend-mode:screen" d="M215.703 3794.82C216.44 3796.11 217.326 3797.31 218.343 3798.39C221.593 3801.83 226.036 3803.9 230.762 3804.18C235.488 3804.46 240.142 3802.92 243.773 3799.88C247.403 3796.84 249.737 3792.53 250.296 3787.83C250.855 3783.13 249.599 3778.39 246.782 3774.58C243.966 3770.78 239.803 3768.19 235.143 3767.35C230.484 3766.51 225.68 3767.48 221.712 3770.07C217.744 3772.65 214.913 3776.65 213.796 3781.25C212.679 3785.85 213.361 3790.71 215.703 3794.82Z" fill="url(#paint43_radial_547_1158)"/>
<path d="M227.815 3788.92C228.558 3789.66 229.504 3790.17 230.535 3790.37C231.566 3790.58 232.635 3790.47 233.606 3790.07C234.577 3789.67 235.407 3788.99 235.991 3788.11C236.575 3787.24 236.887 3786.21 236.887 3785.16C236.887 3784.11 236.575 3783.08 235.991 3782.21C235.407 3781.33 234.577 3780.65 233.606 3780.25C232.635 3779.85 231.566 3779.74 230.535 3779.95C229.504 3780.16 228.558 3780.66 227.815 3781.4C226.82 3782.4 226.261 3783.75 226.261 3785.16C226.261 3786.57 226.82 3787.92 227.815 3788.92Z" fill="white"/>
<path style="mix-blend-mode:screen" d="M207.556 3833.3C209.977 3837.52 213.595 3840.92 217.951 3843.09C222.308 3845.25 227.208 3846.07 232.032 3845.45C236.856 3844.83 241.387 3842.79 245.053 3839.59C248.719 3836.4 251.354 3832.18 252.627 3827.49C253.899 3822.8 253.75 3817.83 252.2 3813.22C250.649 3808.61 247.766 3804.56 243.916 3801.59C240.066 3798.62 235.421 3796.85 230.568 3796.52C225.715 3796.19 220.873 3797.3 216.654 3799.72C211.036 3803.01 206.934 3808.37 205.232 3814.65C203.53 3820.93 204.365 3827.63 207.556 3833.3Z" fill="url(#paint44_radial_547_1158)"/>
<path d="M223.66 3825.45C224.648 3826.44 225.906 3827.11 227.275 3827.39C228.645 3827.66 230.065 3827.52 231.355 3826.98C232.645 3826.45 233.747 3825.54 234.523 3824.38C235.299 3823.22 235.713 3821.86 235.713 3820.46C235.713 3819.06 235.299 3817.7 234.523 3816.54C233.747 3815.38 232.645 3814.47 231.355 3813.94C230.065 3813.4 228.645 3813.26 227.275 3813.54C225.906 3813.81 224.648 3814.48 223.66 3815.47C223.004 3816.12 222.482 3816.9 222.127 3817.76C221.772 3818.61 221.589 3819.53 221.589 3820.46C221.589 3821.39 221.772 3822.31 222.127 3823.16C222.482 3824.02 223.004 3824.8 223.66 3825.45Z" fill="white"/>
</g>
<g clip-path="url(#clip6_547_1158)">
<path d="M1820.3 3598.1H1816.85V3724.98H1820.3V3598.1Z" fill="#FB5733"/>
<path d="M1812.15 3607.52V3645.66L1897.45 3626.59L1812.15 3607.52Z" fill="url(#paint45_linear_547_1158)"/>
<path d="M1825.89 3598.53C1825.89 3600.02 1825.44 3601.47 1824.61 3602.71C1823.79 3603.95 1822.61 3604.91 1821.24 3605.48C1819.86 3606.04 1818.35 3606.19 1816.89 3605.9C1815.43 3605.61 1814.09 3604.89 1813.04 3603.84C1811.99 3602.78 1811.27 3601.44 1810.98 3599.98C1810.7 3598.52 1810.85 3597.01 1811.42 3595.64C1811.99 3594.26 1812.95 3593.09 1814.19 3592.26C1815.43 3591.44 1816.88 3591 1818.37 3591C1819.36 3591 1820.34 3591.2 1821.25 3591.58C1822.16 3591.95 1822.99 3592.51 1823.69 3593.21C1824.39 3593.91 1824.94 3594.74 1825.32 3595.65C1825.7 3596.56 1825.89 3597.54 1825.89 3598.53Z" fill="#FB5733"/>
<path d="M1595.32 4133.82L1677.3 4133.79C1818.31 3897.29 1818.59 3663.25 1818.59 3663.25C1818.59 3663.25 1741.43 4048.23 1595.32 4133.82Z" fill="url(#paint46_linear_547_1158)"/>
<path d="M1677.3 4133.79L1959.81 4133.69C1818.86 3897.24 1818.59 3663.25 1818.59 3663.25C1818.59 3663.25 1818.31 3897.29 1677.3 4133.79Z" fill="url(#paint47_linear_547_1158)"/>
<path d="M1818.59 3663.25C1818.59 3663.25 1818.87 3897.24 1959.81 4133.69L2041.68 4133.66C1895.57 4048.07 1818.59 3663.25 1818.59 3663.25Z" fill="url(#paint48_linear_547_1158)"/>
<path style="mix-blend-mode:screen" d="M1890.27 3906.84L1883.69 3877.49L1887.65 3871.75C1841.97 3776.4 1818.34 3672.08 1818.34 3672.08C1818.34 3672.08 1794.02 3779.47 1747.03 3875.93L1752.36 3881.56L1746.95 3906.84C1746.95 3906.84 1762.32 3897.5 1817.87 3897.5C1873.43 3897.5 1890.27 3906.84 1890.27 3906.84Z" fill="url(#paint49_linear_547_1158)"/>
<path d="M1746.95 3906.84C1747.98 3897.73 1747.39 3888.51 1745.19 3879.61C1784.93 3799.33 1808.86 3710.35 1816.03 3681.58C1801.17 3764.08 1746.95 3906.84 1746.95 3906.84ZM1822.91 3690.55C1839.83 3773.98 1890.27 3906.84 1890.27 3906.84C1889.27 3898 1889.8 3889.05 1891.85 3880.39C1855.4 3806.96 1832.17 3726.08 1822.91 3690.55Z" fill="url(#paint50_linear_547_1158)"/>
<path d="M1818.02 3677.68C1800.9 3948.22 1758.43 4134 1758.43 4134H1877.33C1877.33 4134 1835.13 3948.22 1818.02 3677.68Z" fill="url(#paint51_radial_547_1158)"/>
<path style="mix-blend-mode:screen" d="M1732.3 3915.41C1733.02 3916.66 1733.88 3917.82 1734.88 3918.87C1738.04 3922.2 1742.35 3924.19 1746.93 3924.45C1751.52 3924.7 1756.03 3923.2 1759.54 3920.24C1763.05 3917.28 1765.3 3913.1 1765.83 3908.54C1766.36 3903.98 1765.13 3899.39 1762.39 3895.7C1759.65 3892.02 1755.6 3889.52 1751.08 3888.72C1746.56 3887.92 1741.91 3888.87 1738.06 3891.39C1734.22 3893.9 1731.49 3897.79 1730.42 3902.26C1729.35 3906.72 1730.02 3911.42 1732.3 3915.41Z" fill="url(#paint52_radial_547_1158)"/>
<path d="M1744.09 3909.67C1744.81 3910.39 1745.73 3910.88 1746.73 3911.08C1747.73 3911.28 1748.77 3911.18 1749.72 3910.79C1750.66 3910.4 1751.47 3909.73 1752.04 3908.88C1752.6 3908.03 1752.91 3907.04 1752.91 3906.01C1752.91 3904.99 1752.6 3903.99 1752.04 3903.14C1751.47 3902.29 1750.66 3901.63 1749.72 3901.24C1748.77 3900.85 1747.73 3900.75 1746.73 3900.95C1745.73 3901.15 1744.81 3901.64 1744.09 3902.36C1743.61 3902.84 1743.22 3903.41 1742.96 3904.04C1742.7 3904.66 1742.57 3905.33 1742.57 3906.01C1742.57 3906.69 1742.7 3907.36 1742.96 3907.99C1743.22 3908.62 1743.61 3909.19 1744.09 3909.67Z" fill="white"/>
<path style="mix-blend-mode:screen" d="M1733.81 3887.25C1735.15 3889.57 1737.14 3891.45 1739.54 3892.64C1741.94 3893.83 1744.63 3894.28 1747.29 3893.94C1749.95 3893.6 1752.44 3892.48 1754.46 3890.72C1756.48 3888.96 1757.93 3886.64 1758.63 3884.05C1759.33 3881.47 1759.25 3878.73 1758.4 3876.19C1757.54 3873.65 1755.96 3871.43 1753.84 3869.79C1751.72 3868.15 1749.16 3867.18 1746.49 3867C1743.81 3866.81 1741.15 3867.43 1738.82 3868.76C1737.27 3869.64 1735.91 3870.81 1734.82 3872.22C1733.72 3873.63 1732.92 3875.24 1732.45 3876.96C1731.99 3878.68 1731.87 3880.47 1732.1 3882.24C1732.33 3884.01 1732.92 3885.71 1733.81 3887.25Z" fill="url(#paint53_radial_547_1158)"/>
<path d="M1742.67 3882.93C1743.22 3883.47 1743.91 3883.84 1744.66 3883.99C1745.42 3884.14 1746.2 3884.07 1746.91 3883.77C1747.62 3883.48 1748.22 3882.98 1748.65 3882.34C1749.08 3881.7 1749.3 3880.95 1749.3 3880.18C1749.3 3879.41 1749.08 3878.66 1748.65 3878.02C1748.22 3877.38 1747.62 3876.89 1746.91 3876.59C1746.2 3876.3 1745.42 3876.22 1744.66 3876.37C1743.91 3876.52 1743.22 3876.89 1742.67 3877.43C1741.94 3878.16 1741.53 3879.15 1741.53 3880.18C1741.53 3881.21 1741.94 3882.2 1742.67 3882.93Z" fill="white"/>
<path style="mix-blend-mode:screen" d="M1879.75 3887.25C1880.29 3888.19 1880.94 3889.07 1881.69 3889.86C1884.06 3892.38 1887.32 3893.9 1890.77 3894.1C1894.23 3894.3 1897.64 3893.18 1900.3 3890.95C1902.95 3888.73 1904.66 3885.57 1905.07 3882.13C1905.48 3878.69 1904.56 3875.23 1902.5 3872.44C1900.44 3869.66 1897.39 3867.76 1893.98 3867.15C1890.57 3866.53 1887.06 3867.25 1884.15 3869.14C1881.25 3871.03 1879.18 3873.95 1878.36 3877.32C1877.54 3880.69 1878.04 3884.24 1879.75 3887.25Z" fill="url(#paint54_radial_547_1158)"/>
<path d="M1888.62 3882.93C1889.16 3883.47 1889.85 3883.84 1890.61 3884C1891.36 3884.15 1892.15 3884.07 1892.86 3883.77C1893.57 3883.48 1894.17 3882.98 1894.6 3882.34C1895.03 3881.7 1895.26 3880.95 1895.26 3880.18C1895.26 3879.41 1895.03 3878.66 1894.6 3878.02C1894.17 3877.38 1893.57 3876.88 1892.86 3876.59C1892.15 3876.29 1891.36 3876.22 1890.61 3876.37C1889.85 3876.52 1889.16 3876.89 1888.62 3877.43C1887.89 3878.16 1887.48 3879.15 1887.48 3880.18C1887.48 3881.21 1887.89 3882.2 1888.62 3882.93Z" fill="white"/>
<path style="mix-blend-mode:screen" d="M1873.79 3915.41C1875.56 3918.5 1878.21 3920.99 1881.4 3922.57C1884.59 3924.15 1888.17 3924.76 1891.7 3924.3C1895.23 3923.85 1898.55 3922.36 1901.23 3920.02C1903.92 3917.68 1905.84 3914.59 1906.78 3911.16C1907.71 3907.72 1907.6 3904.09 1906.46 3900.71C1905.33 3897.34 1903.22 3894.38 1900.4 3892.2C1897.58 3890.03 1894.18 3888.74 1890.63 3888.49C1887.08 3888.25 1883.54 3889.07 1880.45 3890.84C1876.34 3893.24 1873.34 3897.16 1872.09 3901.76C1870.85 3906.36 1871.46 3911.26 1873.79 3915.41Z" fill="url(#paint55_radial_547_1158)"/>
<path d="M1885.58 3909.67C1886.3 3910.39 1887.22 3910.88 1888.22 3911.08C1889.23 3911.28 1890.26 3911.18 1891.21 3910.79C1892.15 3910.4 1892.96 3909.73 1893.53 3908.88C1894.09 3908.03 1894.4 3907.04 1894.4 3906.01C1894.4 3904.99 1894.09 3903.99 1893.53 3903.14C1892.96 3902.29 1892.15 3901.63 1891.21 3901.24C1890.26 3900.85 1889.23 3900.75 1888.22 3900.95C1887.22 3901.15 1886.3 3901.64 1885.58 3902.36C1885.1 3902.84 1884.72 3903.41 1884.46 3904.04C1884.2 3904.66 1884.06 3905.33 1884.06 3906.01C1884.06 3906.69 1884.2 3907.36 1884.46 3907.99C1884.72 3908.62 1885.1 3909.19 1885.58 3909.67Z" fill="white"/>
</g>
<g clip-path="url(#clip7_547_1158)">
<path d="M1685.94 3853.69H1684.15V3919.58H1685.94V3853.69Z" fill="#FB5733"/>
<path d="M1681.7 3858.58V3878.39L1726 3868.48L1681.7 3858.58Z" fill="url(#paint56_linear_547_1158)"/>
<path d="M1688.84 3853.91C1688.84 3854.68 1688.61 3855.44 1688.18 3856.08C1687.75 3856.72 1687.13 3857.22 1686.42 3857.52C1685.71 3857.81 1684.92 3857.89 1684.16 3857.74C1683.41 3857.59 1682.71 3857.21 1682.16 3856.67C1681.62 3856.12 1681.25 3855.42 1681.1 3854.66C1680.95 3853.91 1681.03 3853.12 1681.32 3852.41C1681.62 3851.69 1682.12 3851.08 1682.76 3850.66C1683.41 3850.23 1684.16 3850 1684.93 3850C1685.45 3850 1685.95 3850.1 1686.43 3850.3C1686.9 3850.5 1687.33 3850.78 1687.7 3851.15C1688.06 3851.51 1688.35 3851.94 1688.54 3852.42C1688.74 3852.89 1688.84 3853.4 1688.84 3853.91Z" fill="#FB5733"/>
<path d="M1569.09 4131.91L1611.67 4131.89C1684.9 4009.07 1685.05 3887.52 1685.05 3887.52C1685.05 3887.52 1644.98 4087.46 1569.09 4131.91Z" fill="url(#paint57_linear_547_1158)"/>
<path d="M1611.67 4131.89L1758.39 4131.84C1685.19 4009.04 1685.05 3887.52 1685.05 3887.52C1685.05 3887.52 1684.9 4009.07 1611.67 4131.89Z" fill="url(#paint58_linear_547_1158)"/>
<path d="M1685.05 3887.52C1685.05 3887.52 1685.19 4009.04 1758.39 4131.84L1800.91 4131.82C1725.02 4087.37 1685.05 3887.52 1685.05 3887.52Z" fill="url(#paint59_linear_547_1158)"/>
<path style="mix-blend-mode:screen" d="M1722.27 4014.03L1718.86 3998.78L1720.91 3995.8C1697.19 3946.29 1684.92 3892.11 1684.92 3892.11C1684.92 3892.11 1672.29 3947.88 1647.88 3997.97L1650.65 4000.9L1647.84 4014.03C1647.84 4014.03 1655.82 4009.18 1684.67 4009.18C1713.52 4009.18 1722.27 4014.03 1722.27 4014.03Z" fill="url(#paint60_linear_547_1158)"/>
<path d="M1647.84 4014.03C1648.38 4009.3 1648.07 4004.51 1646.93 3999.88C1667.57 3958.19 1680 3911.98 1683.72 3897.04C1676 3939.89 1647.84 4014.03 1647.84 4014.03ZM1687.29 3901.7C1696.08 3945.03 1722.27 4014.03 1722.27 4014.03C1721.75 4009.44 1722.03 4004.79 1723.09 4000.29C1704.16 3962.16 1692.1 3920.15 1687.29 3901.7Z" fill="url(#paint61_linear_547_1158)"/>
<path d="M1684.75 3895.01C1675.86 4035.52 1653.81 4132 1653.81 4132H1715.55C1715.55 4132 1693.64 4035.52 1684.75 3895.01Z" fill="url(#paint62_radial_547_1158)"/>
<path style="mix-blend-mode:screen" d="M1640.23 4018.48C1640.61 4019.13 1641.06 4019.73 1641.57 4020.28C1643.21 4022 1645.45 4023.04 1647.83 4023.17C1650.21 4023.3 1652.56 4022.52 1654.38 4020.99C1656.2 4019.45 1657.37 4017.28 1657.65 4014.91C1657.92 4012.54 1657.28 4010.16 1655.86 4008.24C1654.43 4006.33 1652.33 4005.03 1649.99 4004.62C1647.64 4004.2 1645.22 4004.7 1643.23 4006C1641.23 4007.31 1639.81 4009.33 1639.26 4011.65C1638.7 4013.96 1639.05 4016.41 1640.23 4018.48Z" fill="url(#paint63_radial_547_1158)"/>
<path d="M1646.35 4015.5C1646.73 4015.87 1647.21 4016.13 1647.73 4016.23C1648.25 4016.33 1648.79 4016.28 1649.28 4016.08C1649.77 4015.87 1650.19 4015.53 1650.48 4015.09C1650.78 4014.65 1650.93 4014.13 1650.93 4013.6C1650.93 4013.07 1650.78 4012.55 1650.48 4012.11C1650.19 4011.67 1649.77 4011.32 1649.28 4011.12C1648.79 4010.92 1648.25 4010.86 1647.73 4010.97C1647.21 4011.07 1646.73 4011.33 1646.35 4011.7C1646.1 4011.95 1645.91 4012.25 1645.77 4012.57C1645.64 4012.9 1645.57 4013.25 1645.57 4013.6C1645.57 4013.95 1645.64 4014.3 1645.77 4014.63C1645.91 4014.95 1646.1 4015.25 1646.35 4015.5Z" fill="white"/>
<path style="mix-blend-mode:screen" d="M1641.02 4003.85C1641.71 4005.06 1642.75 4006.03 1643.99 4006.65C1645.24 4007.27 1646.64 4007.51 1648.02 4007.33C1649.4 4007.15 1650.69 4006.57 1651.74 4005.65C1652.79 4004.74 1653.54 4003.54 1653.91 4002.19C1654.27 4000.85 1654.23 3999.43 1653.79 3998.11C1653.34 3996.79 1652.52 3995.64 1651.42 3994.79C1650.32 3993.94 1648.99 3993.43 1647.6 3993.34C1646.21 3993.24 1644.83 3993.56 1643.62 3994.25C1642.81 3994.71 1642.11 3995.32 1641.54 3996.05C1640.97 3996.78 1640.55 3997.62 1640.31 3998.51C1640.07 3999.4 1640.01 4000.33 1640.13 4001.25C1640.25 4002.17 1640.55 4003.05 1641.02 4003.85Z" fill="url(#paint64_radial_547_1158)"/>
<path d="M1645.62 4001.61C1645.9 4001.89 1646.26 4002.08 1646.65 4002.16C1647.04 4002.24 1647.45 4002.2 1647.82 4002.05C1648.19 4001.89 1648.5 4001.64 1648.72 4001.3C1648.95 4000.97 1649.06 4000.58 1649.06 4000.18C1649.06 3999.78 1648.95 3999.39 1648.72 3999.06C1648.5 3998.73 1648.19 3998.47 1647.82 3998.32C1647.45 3998.17 1647.04 3998.13 1646.65 3998.2C1646.26 3998.28 1645.9 3998.47 1645.62 3998.75C1645.24 3999.13 1645.03 3999.65 1645.03 4000.18C1645.03 4000.72 1645.24 4001.23 1645.62 4001.61Z" fill="white"/>
<path style="mix-blend-mode:screen" d="M1716.81 4003.85C1717.09 4004.34 1717.43 4004.8 1717.81 4005.21C1719.05 4006.52 1720.74 4007.31 1722.53 4007.41C1724.33 4007.52 1726.1 4006.93 1727.48 4005.78C1728.86 4004.62 1729.75 4002.98 1729.96 4001.2C1730.17 3999.41 1729.69 3997.61 1728.62 3996.16C1727.55 3994.72 1725.97 3993.73 1724.2 3993.41C1722.43 3993.1 1720.6 3993.46 1719.1 3994.45C1717.59 3995.43 1716.51 3996.95 1716.09 3998.7C1715.66 4000.45 1715.92 4002.29 1716.81 4003.85Z" fill="url(#paint65_radial_547_1158)"/>
<path d="M1721.41 4001.61C1721.7 4001.89 1722.06 4002.09 1722.45 4002.16C1722.84 4002.24 1723.25 4002.2 1723.62 4002.05C1723.98 4001.9 1724.3 4001.64 1724.52 4001.3C1724.74 4000.97 1724.86 4000.58 1724.86 4000.18C1724.86 3999.78 1724.74 3999.39 1724.52 3999.06C1724.3 3998.73 1723.98 3998.47 1723.62 3998.32C1723.25 3998.16 1722.84 3998.12 1722.45 3998.2C1722.06 3998.28 1721.7 3998.47 1721.41 3998.75C1721.04 3999.13 1720.82 3999.65 1720.82 4000.18C1720.82 4000.72 1721.04 4001.23 1721.41 4001.61Z" fill="white"/>
<path style="mix-blend-mode:screen" d="M1713.72 4018.48C1714.64 4020.08 1716.01 4021.38 1717.67 4022.2C1719.32 4023.02 1721.18 4023.33 1723.02 4023.1C1724.85 4022.86 1726.57 4022.08 1727.97 4020.87C1729.36 4019.65 1730.36 4018.05 1730.84 4016.27C1731.33 4014.49 1731.27 4012.6 1730.68 4010.85C1730.09 4009.09 1729 4007.56 1727.53 4006.43C1726.07 4005.3 1724.31 4004.63 1722.46 4004.5C1720.62 4004.37 1718.78 4004.8 1717.17 4005.72C1715.04 4006.97 1713.48 4009 1712.83 4011.39C1712.19 4013.78 1712.5 4016.32 1713.72 4018.48Z" fill="url(#paint66_radial_547_1158)"/>
<path d="M1719.84 4015.5C1720.21 4015.87 1720.69 4016.13 1721.21 4016.23C1721.73 4016.33 1722.27 4016.28 1722.76 4016.08C1723.25 4015.87 1723.67 4015.53 1723.96 4015.09C1724.26 4014.65 1724.42 4014.13 1724.42 4013.6C1724.42 4013.07 1724.26 4012.55 1723.96 4012.11C1723.67 4011.67 1723.25 4011.32 1722.76 4011.12C1722.27 4010.92 1721.73 4010.86 1721.21 4010.97C1720.69 4011.07 1720.21 4011.33 1719.84 4011.7C1719.59 4011.95 1719.39 4012.25 1719.25 4012.57C1719.12 4012.9 1719.05 4013.25 1719.05 4013.6C1719.05 4013.95 1719.12 4014.3 1719.25 4014.63C1719.39 4014.95 1719.59 4015.25 1719.84 4015.5Z" fill="white"/>
</g>
</g>
<defs>
<filter id="filter0_f_547_1158" x="-385" y="-348" width="1300" height="1300" filterUnits="userSpaceOnUse" color-interpolation-filters="sRGB">
<feFlood flood-opacity="0" result="BackgroundImageFix"/>
<feBlend mode="normal" in="SourceGraphic" in2="BackgroundImageFix" result="shape"/>
<feGaussianBlur stdDeviation="100" result="effect1_foregroundBlur_547_1158"/>
</filter>
<filter id="filter1_f_547_1158" x="910" y="681" width="1300" height="1300" filterUnits="userSpaceOnUse" color-interpolation-filters="sRGB">
<feFlood flood-opacity="0" result="BackgroundImageFix"/>
<feBlend mode="normal" in="SourceGraphic" in2="BackgroundImageFix" result="shape"/>
<feGaussianBlur stdDeviation="100" result="effect1_foregroundBlur_547_1158"/>
</filter>
<filter id="filter2_f_547_1158" x="-168" y="1216" width="1300" height="1300" filterUnits="userSpaceOnUse" color-interpolation-filters="sRGB">
<feFlood flood-opacity="0" result="BackgroundImageFix"/>
<feBlend mode="normal" in="SourceGraphic" in2="BackgroundImageFix" result="shape"/>
<feGaussianBlur stdDeviation="100" result="effect1_foregroundBlur_547_1158"/>
</filter>
<filter id="filter3_f_547_1158" x="1021" y="1844" width="1300" height="1300" filterUnits="userSpaceOnUse" color-interpolation-filters="sRGB">
<feFlood flood-opacity="0" result="BackgroundImageFix"/>
<feBlend mode="normal" in="SourceGraphic" in2="BackgroundImageFix" result="shape"/>
<feGaussianBlur stdDeviation="100" result="effect1_foregroundBlur_547_1158"/>
</filter>
<filter id="filter4_f_547_1158" x="-194" y="2694" width="1300" height="1300" filterUnits="userSpaceOnUse" color-interpolation-filters="sRGB">
<feFlood flood-opacity="0" result="BackgroundImageFix"/>
<feBlend mode="normal" in="SourceGraphic" in2="BackgroundImageFix" result="shape"/>
<feGaussianBlur stdDeviation="100" result="effect1_foregroundBlur_547_1158"/>
</filter>
<filter id="filter5_f_547_1158" x="806" y="3278" width="1300" height="1300" filterUnits="userSpaceOnUse" color-interpolation-filters="sRGB">
<feFlood flood-opacity="0" result="BackgroundImageFix"/>
<feBlend mode="normal" in="SourceGraphic" in2="BackgroundImageFix" result="shape"/>
<feGaussianBlur stdDeviation="100" result="effect1_foregroundBlur_547_1158"/>
</filter>
<linearGradient id="paint0_linear_547_1158" x1="58.0714" y1="903.189" x2="309.371" y2="944.106" gradientUnits="userSpaceOnUse">
<stop offset="0.08" stop-color="#FB5733"/>
<stop offset="0.18" stop-color="#F85233"/>
<stop offset="0.3" stop-color="#EE4334"/>
<stop offset="0.43" stop-color="#DE2A36"/>
<stop offset="0.56" stop-color="#C80838"/>
<stop offset="0.59" stop-color="#C30038"/>
</linearGradient>
<linearGradient id="paint1_linear_547_1158" x1="241.584" y1="889.036" x2="333.799" y2="904.051" gradientUnits="userSpaceOnUse">
<stop offset="0.21" stop-color="#C30038"/>
<stop offset="0.25" stop-color="#C80838"/>
<stop offset="0.44" stop-color="#DE2A36"/>
<stop offset="0.62" stop-color="#EE4334"/>
<stop offset="0.79" stop-color="#F85233"/>
<stop offset="0.92" stop-color="#FB5733"/>
</linearGradient>
<linearGradient id="paint2_linear_547_1158" x1="52.749" y1="857.353" x2="148.857" y2="873.002" gradientUnits="userSpaceOnUse">
<stop offset="0.21" stop-color="#C30038"/>
<stop offset="0.25" stop-color="#C80838"/>
<stop offset="0.44" stop-color="#DE2A36"/>
<stop offset="0.62" stop-color="#EE4334"/>
<stop offset="0.79" stop-color="#F85233"/>
<stop offset="0.92" stop-color="#FB5733"/>
</linearGradient>
<radialGradient id="paint3_radial_547_1158" cx="0" cy="0" r="1" gradientUnits="userSpaceOnUse" gradientTransform="translate(174.549 813.158) rotate(9.24798) scale(157.763 157.763)">
<stop offset="0.35" stop-color="#2CA8DF"/>
<stop offset="1" stop-color="#1B75BA"/>
</radialGradient>
<linearGradient id="paint4_linear_547_1158" x1="115.591" y1="1135.09" x2="185.89" y2="1084.47" gradientUnits="userSpaceOnUse">
<stop offset="0.21" stop-color="#C30038"/>
<stop offset="0.25" stop-color="#C80838"/>
<stop offset="0.44" stop-color="#DE2A36"/>
<stop offset="0.62" stop-color="#EE4334"/>
<stop offset="0.79" stop-color="#F85233"/>
<stop offset="0.92" stop-color="#FB5733"/>
</linearGradient>
<radialGradient id="paint5_radial_547_1158" cx="0" cy="0" r="1" gradientUnits="userSpaceOnUse" gradientTransform="translate(71.4621 953.72) rotate(39.078) scale(14.7487 14.7487)">
<stop stop-color="white"/>
<stop offset="0.33" stop-color="#FFE2B4" stop-opacity="0.64"/>
<stop offset="0.66" stop-color="#FFC76E" stop-opacity="0.3"/>
<stop offset="0.89" stop-color="#FFB742" stop-opacity="0.08"/>
<stop offset="1" stop-color="#FFB031" stop-opacity="0"/>
</radialGradient>
<radialGradient id="paint6_radial_547_1158" cx="0" cy="0" r="1" gradientUnits="userSpaceOnUse" gradientTransform="translate(279.334 987.552) rotate(39.078) scale(14.7487 14.7487)">
<stop stop-color="white"/>
<stop offset="0.33" stop-color="#FFE2B4" stop-opacity="0.64"/>
<stop offset="0.66" stop-color="#FFC76E" stop-opacity="0.3"/>
<stop offset="0.89" stop-color="#FFB742" stop-opacity="0.08"/>
<stop offset="1" stop-color="#FFB031" stop-opacity="0"/>
</radialGradient>
<radialGradient id="paint7_radial_547_1158" cx="0" cy="0" r="1" gradientUnits="userSpaceOnUse" gradientTransform="translate(135.875 959.406) rotate(39.078) scale(14.745 14.745)">
<stop stop-color="white"/>
<stop offset="0.33" stop-color="#FFE2B4" stop-opacity="0.64"/>
<stop offset="0.66" stop-color="#FFC76E" stop-opacity="0.3"/>
<stop offset="0.89" stop-color="#FFB742" stop-opacity="0.08"/>
<stop offset="1" stop-color="#FFB031" stop-opacity="0"/>
</radialGradient>
<radialGradient id="paint8_radial_547_1158" cx="0" cy="0" r="1" gradientUnits="userSpaceOnUse" gradientTransform="translate(221.663 973.369) rotate(39.078) scale(14.745 14.745)">
<stop stop-color="white"/>
<stop offset="0.33" stop-color="#FFE2B4" stop-opacity="0.64"/>
<stop offset="0.66" stop-color="#FFC76E" stop-opacity="0.3"/>
<stop offset="0.89" stop-color="#FFB742" stop-opacity="0.08"/>
<stop offset="1" stop-color="#FFB031" stop-opacity="0"/>
</radialGradient>
<linearGradient id="paint9_linear_547_1158" x1="205.971" y1="1875.25" x2="327.738" y2="1843.35" gradientUnits="userSpaceOnUse">
<stop offset="0.08" stop-color="#FB5733"/>
<stop offset="0.18" stop-color="#F85233"/>
<stop offset="0.3" stop-color="#EE4334"/>
<stop offset="0.43" stop-color="#DE2A36"/>
<stop offset="0.56" stop-color="#C80838"/>
<stop offset="0.59" stop-color="#C30038"/>
</linearGradient>
<linearGradient id="paint10_linear_547_1158" x1="286.064" y1="1832.06" x2="330.746" y2="1820.35" gradientUnits="userSpaceOnUse">
<stop offset="0.21" stop-color="#C30038"/>
<stop offset="0.25" stop-color="#C80838"/>
<stop offset="0.44" stop-color="#DE2A36"/>
<stop offset="0.62" stop-color="#EE4334"/>
<stop offset="0.79" stop-color="#F85233"/>
<stop offset="0.92" stop-color="#FB5733"/>
</linearGradient>
<linearGradient id="paint11_linear_547_1158" x1="194.376" y1="1855.6" x2="240.945" y2="1843.4" gradientUnits="userSpaceOnUse">
<stop offset="0.21" stop-color="#C30038"/>
<stop offset="0.25" stop-color="#C80838"/>
<stop offset="0.44" stop-color="#DE2A36"/>
<stop offset="0.62" stop-color="#EE4334"/>
<stop offset="0.79" stop-color="#F85233"/>
<stop offset="0.92" stop-color="#FB5733"/>
</linearGradient>
<radialGradient id="paint12_radial_547_1158" cx="0" cy="0" r="1" gradientUnits="userSpaceOnUse" gradientTransform="translate(240.556 1811.21) rotate(-14.6778) scale(77.9958 77.9958)">
<stop offset="0.35" stop-color="#2CA8DF"/>
<stop offset="1" stop-color="#1B75BA"/>
</radialGradient>
<linearGradient id="paint13_linear_547_1158" x1="278.46" y1="1968.51" x2="300.08" y2="1931.54" gradientUnits="userSpaceOnUse">
<stop offset="0.21" stop-color="#C30038"/>
<stop offset="0.25" stop-color="#C80838"/>
<stop offset="0.44" stop-color="#DE2A36"/>
<stop offset="0.62" stop-color="#EE4334"/>
<stop offset="0.79" stop-color="#F85233"/>
<stop offset="0.92" stop-color="#FB5733"/>
</linearGradient>
<radialGradient id="paint14_radial_547_1158" cx="0" cy="0" r="1" gradientUnits="userSpaceOnUse" gradientTransform="translate(222.154 1895.4) rotate(15.1521) scale(7.29154)">
<stop stop-color="white"/>
<stop offset="0.33" stop-color="#FFE2B4" stop-opacity="0.64"/>
<stop offset="0.66" stop-color="#FFC76E" stop-opacity="0.3"/>
<stop offset="0.89" stop-color="#FFB742" stop-opacity="0.08"/>
<stop offset="1" stop-color="#FFB031" stop-opacity="0"/>
</radialGradient>
<radialGradient id="paint15_radial_547_1158" cx="0" cy="0" r="1" gradientUnits="userSpaceOnUse" gradientTransform="translate(322.875 1869.01) rotate(15.1521) scale(7.29155 7.29154)">
<stop stop-color="white"/>
<stop offset="0.33" stop-color="#FFE2B4" stop-opacity="0.64"/>
<stop offset="0.66" stop-color="#FFC76E" stop-opacity="0.3"/>
<stop offset="0.89" stop-color="#FFB742" stop-opacity="0.08"/>
<stop offset="1" stop-color="#FFB031" stop-opacity="0"/>
</radialGradient>
<radialGradient id="paint16_radial_547_1158" cx="0" cy="0" r="1" gradientUnits="userSpaceOnUse" gradientTransform="translate(252.402 1885.05) rotate(15.1522) scale(7.28967)">
<stop stop-color="white"/>
<stop offset="0.33" stop-color="#FFE2B4" stop-opacity="0.64"/>
<stop offset="0.66" stop-color="#FFC76E" stop-opacity="0.3"/>
<stop offset="0.89" stop-color="#FFB742" stop-opacity="0.08"/>
<stop offset="1" stop-color="#FFB031" stop-opacity="0"/>
</radialGradient>
<radialGradient id="paint17_radial_547_1158" cx="0" cy="0" r="1" gradientUnits="userSpaceOnUse" gradientTransform="translate(293.97 1874.16) rotate(15.1521) scale(7.28967 7.28967)">
<stop stop-color="white"/>
<stop offset="0.33" stop-color="#FFE2B4" stop-opacity="0.64"/>
<stop offset="0.66" stop-color="#FFC76E" stop-opacity="0.3"/>
<stop offset="0.89" stop-color="#FFB742" stop-opacity="0.08"/>
<stop offset="1" stop-color="#FFB031" stop-opacity="0"/>
</radialGradient>
<linearGradient id="paint18_linear_547_1158" x1="1594.87" y1="1382.56" x2="2112.36" y2="1294.99" gradientUnits="userSpaceOnUse">
<stop offset="0.08" stop-color="#FB5733"/>
<stop offset="0.18" stop-color="#F85233"/>
<stop offset="0.3" stop-color="#EE4334"/>
<stop offset="0.43" stop-color="#DE2A36"/>
<stop offset="0.56" stop-color="#C80838"/>
<stop offset="0.59" stop-color="#C30038"/>
</linearGradient>
<linearGradient id="paint19_linear_547_1158" x1="1943.44" y1="1232.71" x2="2133.33" y2="1200.57" gradientUnits="userSpaceOnUse">
<stop offset="0.21" stop-color="#C30038"/>
<stop offset="0.25" stop-color="#C80838"/>
<stop offset="0.44" stop-color="#DE2A36"/>
<stop offset="0.62" stop-color="#EE4334"/>
<stop offset="0.79" stop-color="#F85233"/>
<stop offset="0.92" stop-color="#FB5733"/>
</linearGradient>
<linearGradient id="paint20_linear_547_1158" x1="1553.95" y1="1296.69" x2="1751.87" y2="1263.2" gradientUnits="userSpaceOnUse">
<stop offset="0.21" stop-color="#C30038"/>
<stop offset="0.25" stop-color="#C80838"/>
<stop offset="0.44" stop-color="#DE2A36"/>
<stop offset="0.62" stop-color="#EE4334"/>
<stop offset="0.79" stop-color="#F85233"/>
<stop offset="0.92" stop-color="#FB5733"/>
</linearGradient>
<radialGradient id="paint21_radial_547_1158" cx="0" cy="0" r="1" gradientUnits="userSpaceOnUse" gradientTransform="translate(1762.12 1129.34) rotate(-9.60505) scale(325.214 325.214)">
<stop offset="0.35" stop-color="#2CA8DF"/>
<stop offset="1" stop-color="#1B75BA"/>
</radialGradient>
<linearGradient id="paint22_linear_547_1158" x1="1861.55" y1="1796.63" x2="1964.98" y2="1651.07" gradientUnits="userSpaceOnUse">
<stop offset="0.21" stop-color="#C30038"/>
<stop offset="0.25" stop-color="#C80838"/>
<stop offset="0.44" stop-color="#DE2A36"/>
<stop offset="0.62" stop-color="#EE4334"/>
<stop offset="0.79" stop-color="#F85233"/>
<stop offset="0.92" stop-color="#FB5733"/>
</linearGradient>
<radialGradient id="paint23_radial_547_1158" cx="0" cy="0" r="1" gradientUnits="userSpaceOnUse" gradientTransform="translate(1654.65 1472.22) rotate(20.2249) scale(30.4031 30.403)">
<stop stop-color="white"/>
<stop offset="0.33" stop-color="#FFE2B4" stop-opacity="0.64"/>
<stop offset="0.66" stop-color="#FFC76E" stop-opacity="0.3"/>
<stop offset="0.89" stop-color="#FFB742" stop-opacity="0.08"/>
<stop offset="1" stop-color="#FFB031" stop-opacity="0"/>
</radialGradient>
<radialGradient id="paint24_radial_547_1158" cx="0" cy="0" r="1" gradientUnits="userSpaceOnUse" gradientTransform="translate(1784.1 1440.4) rotate(20.2249) scale(30.3952 30.3952)">
<stop stop-color="white"/>
<stop offset="0.33" stop-color="#FFE2B4" stop-opacity="0.64"/>
<stop offset="0.66" stop-color="#FFC76E" stop-opacity="0.3"/>
<stop offset="0.89" stop-color="#FFB742" stop-opacity="0.08"/>
<stop offset="1" stop-color="#FFB031" stop-opacity="0"/>
</radialGradient>
<linearGradient id="paint25_linear_547_1158" x1="1592.73" y1="2217.34" x2="1695.83" y2="2265.58" gradientUnits="userSpaceOnUse">
<stop offset="0.08" stop-color="#FB5733"/>
<stop offset="0.18" stop-color="#F85233"/>
<stop offset="0.3" stop-color="#EE4334"/>
<stop offset="0.43" stop-color="#DE2A36"/>
<stop offset="0.56" stop-color="#C80838"/>
<stop offset="0.59" stop-color="#C30038"/>
</linearGradient>
<linearGradient id="paint26_linear_547_1158" x1="1673.39" y1="2233.63" x2="1711.22" y2="2251.33" gradientUnits="userSpaceOnUse">
<stop offset="0.21" stop-color="#C30038"/>
<stop offset="0.25" stop-color="#C80838"/>
<stop offset="0.44" stop-color="#DE2A36"/>
<stop offset="0.62" stop-color="#EE4334"/>
<stop offset="0.79" stop-color="#F85233"/>
<stop offset="0.92" stop-color="#FB5733"/>
</linearGradient>
<linearGradient id="paint27_linear_547_1158" x1="1596.03" y1="2196.97" x2="1635.46" y2="2215.42" gradientUnits="userSpaceOnUse">
<stop offset="0.21" stop-color="#C30038"/>
<stop offset="0.25" stop-color="#C80838"/>
<stop offset="0.44" stop-color="#DE2A36"/>
<stop offset="0.62" stop-color="#EE4334"/>
<stop offset="0.79" stop-color="#F85233"/>
<stop offset="0.92" stop-color="#FB5733"/>
</linearGradient>
<radialGradient id="paint28_radial_547_1158" cx="0" cy="0" r="1" gradientUnits="userSpaceOnUse" gradientTransform="translate(1653.81 2192.82) rotate(25.0762) scale(70.5287 70.5287)">
<stop offset="0.35" stop-color="#2CA8DF"/>
<stop offset="1" stop-color="#1B75BA"/>
</radialGradient>
<linearGradient id="paint29_linear_547_1158" x1="1589.2" y1="2324.09" x2="1625.6" y2="2310.89" gradientUnits="userSpaceOnUse">
<stop offset="0.21" stop-color="#C30038"/>
<stop offset="0.25" stop-color="#C80838"/>
<stop offset="0.44" stop-color="#DE2A36"/>
<stop offset="0.62" stop-color="#EE4334"/>
<stop offset="0.79" stop-color="#F85233"/>
<stop offset="0.92" stop-color="#FB5733"/>
</linearGradient>
<radialGradient id="paint30_radial_547_1158" cx="0" cy="0" r="1" gradientUnits="userSpaceOnUse" gradientTransform="translate(1592.33 2240.7) rotate(54.9062) scale(6.59347)">
<stop stop-color="white"/>
<stop offset="0.33" stop-color="#FFE2B4" stop-opacity="0.64"/>
<stop offset="0.66" stop-color="#FFC76E" stop-opacity="0.3"/>
<stop offset="0.89" stop-color="#FFB742" stop-opacity="0.08"/>
<stop offset="1" stop-color="#FFB031" stop-opacity="0"/>
</radialGradient>
<radialGradient id="paint31_radial_547_1158" cx="0" cy="0" r="1" gradientUnits="userSpaceOnUse" gradientTransform="translate(1677.61 2280.6) rotate(54.9062) scale(6.59348 6.59347)">
<stop stop-color="white"/>
<stop offset="0.33" stop-color="#FFE2B4" stop-opacity="0.64"/>
<stop offset="0.66" stop-color="#FFC76E" stop-opacity="0.3"/>
<stop offset="0.89" stop-color="#FFB742" stop-opacity="0.08"/>
<stop offset="1" stop-color="#FFB031" stop-opacity="0"/>
</radialGradient>
<radialGradient id="paint32_radial_547_1158" cx="0" cy="0" r="1" gradientUnits="userSpaceOnUse" gradientTransform="translate(1619.34 2251) rotate(54.9062) scale(6.59178)">
<stop stop-color="white"/>
<stop offset="0.33" stop-color="#FFE2B4" stop-opacity="0.64"/>
<stop offset="0.66" stop-color="#FFC76E" stop-opacity="0.3"/>
<stop offset="0.89" stop-color="#FFB742" stop-opacity="0.08"/>
<stop offset="1" stop-color="#FFB031" stop-opacity="0"/>
</radialGradient>
<radialGradient id="paint33_radial_547_1158" cx="0" cy="0" r="1" gradientUnits="userSpaceOnUse" gradientTransform="translate(1654.54 2267.47) rotate(54.9062) scale(6.59178 6.59178)">
<stop stop-color="white"/>
<stop offset="0.33" stop-color="#FFE2B4" stop-opacity="0.64"/>
<stop offset="0.66" stop-color="#FFC76E" stop-opacity="0.3"/>
<stop offset="0.89" stop-color="#FFB742" stop-opacity="0.08"/>
<stop offset="1" stop-color="#FFB031" stop-opacity="0"/>
</radialGradient>
<linearGradient id="paint34_linear_547_1158" x1="123.316" y1="3438.64" x2="239.884" y2="3438.64" gradientUnits="userSpaceOnUse">
<stop offset="0.21" stop-color="#C30038"/>
<stop offset="0.25" stop-color="#C80838"/>
<stop offset="0.44" stop-color="#DE2A36"/>
<stop offset="0.62" stop-color="#EE4334"/>
<stop offset="0.79" stop-color="#F85233"/>
<stop offset="0.92" stop-color="#FB5733"/>
</linearGradient>
<linearGradient id="paint35_linear_547_1158" x1="-172.974" y1="3810.24" x2="132.12" y2="3810.24" gradientUnits="userSpaceOnUse">
<stop offset="0.08" stop-color="#FB5733"/>
<stop offset="0.21" stop-color="#F85233"/>
<stop offset="0.38" stop-color="#EE4334"/>
<stop offset="0.56" stop-color="#DE2A36"/>
<stop offset="0.75" stop-color="#C80838"/>
<stop offset="0.79" stop-color="#C30038"/>
</linearGradient>
<linearGradient id="paint36_linear_547_1158" x1="-60.947" y1="3810.22" x2="325.094" y2="3810.22" gradientUnits="userSpaceOnUse">
<stop offset="0.08" stop-color="#FB5733"/>
<stop offset="0.21" stop-color="#F85233"/>
<stop offset="0.38" stop-color="#EE4334"/>
<stop offset="0.56" stop-color="#DE2A36"/>
<stop offset="0.75" stop-color="#C80838"/>
<stop offset="0.79" stop-color="#C30038"/>
</linearGradient>
<linearGradient id="paint37_linear_547_1158" x1="132.12" y1="3810.15" x2="436.974" y2="3810.15" gradientUnits="userSpaceOnUse">
<stop offset="0.08" stop-color="#FB5733"/>
<stop offset="0.21" stop-color="#F85233"/>
<stop offset="0.38" stop-color="#EE4334"/>
<stop offset="0.56" stop-color="#DE2A36"/>
<stop offset="0.75" stop-color="#C80838"/>
<stop offset="0.79" stop-color="#C30038"/>
</linearGradient>
<linearGradient id="paint38_linear_547_1158" x1="132.155" y1="3821.59" x2="132.155" y2="3500.79" gradientUnits="userSpaceOnUse">
<stop stop-color="#FFB031"/>
<stop offset="0.06" stop-color="#FFA631"/>
<stop offset="0.31" stop-color="#FD8432"/>
<stop offset="0.54" stop-color="#FC6B33"/>
<stop offset="0.75" stop-color="#FB5C33"/>
<stop offset="0.92" stop-color="#FB5733"/>
</linearGradient>
<linearGradient id="paint39_linear_547_1158" x1="132.035" y1="4072.93" x2="132.035" y2="3595.69" gradientUnits="userSpaceOnUse">
<stop stop-color="#FFB031"/>
<stop offset="0.06" stop-color="#FFA631"/>
<stop offset="0.31" stop-color="#FD8432"/>
<stop offset="0.54" stop-color="#FC6B33"/>
<stop offset="0.75" stop-color="#FB5C33"/>
<stop offset="0.92" stop-color="#FB5733"/>
</linearGradient>
<radialGradient id="paint40_radial_547_1158" cx="0" cy="0" r="1" gradientUnits="userSpaceOnUse" gradientTransform="translate(135.439 4077.71) scale(258.803 512.431)">
<stop stop-color="#5F074D"/>
<stop offset="0.21" stop-color="#480642"/>
<stop offset="0.48" stop-color="#320437"/>
<stop offset="0.74" stop-color="#250330"/>
<stop offset="0.97" stop-color="#20032E"/>
</radialGradient>
<radialGradient id="paint41_radial_547_1158" cx="0" cy="0" r="1" gradientUnits="userSpaceOnUse" gradientTransform="translate(31.8971 3824.03) rotate(150.113) scale(22.3599 22.3599)">
<stop stop-color="white"/>
<stop offset="0.33" stop-color="#FFE2B4" stop-opacity="0.64"/>
<stop offset="0.66" stop-color="#FFC76E" stop-opacity="0.3"/>
<stop offset="0.89" stop-color="#FFB742" stop-opacity="0.08"/>
<stop offset="1" stop-color="#FFB031" stop-opacity="0"/>
</radialGradient>
<radialGradient id="paint42_radial_547_1158" cx="0" cy="0" r="1" gradientUnits="userSpaceOnUse" gradientTransform="translate(28.6474 3788.54) rotate(150.113) scale(16.8262 16.8262)">
<stop stop-color="white"/>
<stop offset="0.33" stop-color="#FFE2B4" stop-opacity="0.64"/>
<stop offset="0.66" stop-color="#FFC76E" stop-opacity="0.3"/>
<stop offset="0.89" stop-color="#FFB742" stop-opacity="0.08"/>
<stop offset="1" stop-color="#FFB031" stop-opacity="0"/>
</radialGradient>
<radialGradient id="paint43_radial_547_1158" cx="0" cy="0" r="1" gradientUnits="userSpaceOnUse" gradientTransform="translate(228.76 3788.35) rotate(150.113) scale(16.8301 16.8301)">
<stop stop-color="white"/>
<stop offset="0.33" stop-color="#FFE2B4" stop-opacity="0.64"/>
<stop offset="0.66" stop-color="#FFC76E" stop-opacity="0.3"/>
<stop offset="0.89" stop-color="#FFB742" stop-opacity="0.08"/>
<stop offset="1" stop-color="#FFB031" stop-opacity="0"/>
</radialGradient>
<radialGradient id="paint44_radial_547_1158" cx="0" cy="0" r="1" gradientUnits="userSpaceOnUse" gradientTransform="translate(225.903 3823.85) rotate(150.113) scale(22.3599 22.3599)">
<stop stop-color="white"/>
<stop offset="0.33" stop-color="#FFE2B4" stop-opacity="0.64"/>
<stop offset="0.66" stop-color="#FFC76E" stop-opacity="0.3"/>
<stop offset="0.89" stop-color="#FFB742" stop-opacity="0.08"/>
<stop offset="1" stop-color="#FFB031" stop-opacity="0"/>
</radialGradient>
<linearGradient id="paint45_linear_547_1158" x1="1812.15" y1="3626.59" x2="1897.45" y2="3626.59" gradientUnits="userSpaceOnUse">
<stop offset="0.21" stop-color="#C30038"/>
<stop offset="0.25" stop-color="#C80838"/>
<stop offset="0.44" stop-color="#DE2A36"/>
<stop offset="0.62" stop-color="#EE4334"/>
<stop offset="0.79" stop-color="#F85233"/>
<stop offset="0.92" stop-color="#FB5733"/>
</linearGradient>
<linearGradient id="paint46_linear_547_1158" x1="1595.32" y1="3898.53" x2="1818.59" y2="3898.53" gradientUnits="userSpaceOnUse">
<stop offset="0.08" stop-color="#FB5733"/>
<stop offset="0.21" stop-color="#F85233"/>
<stop offset="0.38" stop-color="#EE4334"/>
<stop offset="0.56" stop-color="#DE2A36"/>
<stop offset="0.75" stop-color="#C80838"/>
<stop offset="0.79" stop-color="#C30038"/>
</linearGradient>
<linearGradient id="paint47_linear_547_1158" x1="1677.3" y1="3898.52" x2="1959.81" y2="3898.52" gradientUnits="userSpaceOnUse">
<stop offset="0.08" stop-color="#FB5733"/>
<stop offset="0.21" stop-color="#F85233"/>
<stop offset="0.38" stop-color="#EE4334"/>
<stop offset="0.56" stop-color="#DE2A36"/>
<stop offset="0.75" stop-color="#C80838"/>
<stop offset="0.79" stop-color="#C30038"/>
</linearGradient>
<linearGradient id="paint48_linear_547_1158" x1="1818.59" y1="3898.47" x2="2041.68" y2="3898.47" gradientUnits="userSpaceOnUse">
<stop offset="0.08" stop-color="#FB5733"/>
<stop offset="0.21" stop-color="#F85233"/>
<stop offset="0.38" stop-color="#EE4334"/>
<stop offset="0.56" stop-color="#DE2A36"/>
<stop offset="0.75" stop-color="#C80838"/>
<stop offset="0.79" stop-color="#C30038"/>
</linearGradient>
<linearGradient id="paint49_linear_547_1158" x1="1818.61" y1="3906.84" x2="1818.61" y2="3672.07" gradientUnits="userSpaceOnUse">
<stop stop-color="#FFB031"/>
<stop offset="0.06" stop-color="#FFA631"/>
<stop offset="0.31" stop-color="#FD8432"/>
<stop offset="0.54" stop-color="#FC6B33"/>
<stop offset="0.75" stop-color="#FB5C33"/>
<stop offset="0.92" stop-color="#FB5733"/>
</linearGradient>
<linearGradient id="paint50_linear_547_1158" x1="1818.53" y1="4090.77" x2="1818.53" y2="3741.52" gradientUnits="userSpaceOnUse">
<stop stop-color="#FFB031"/>
<stop offset="0.06" stop-color="#FFA631"/>
<stop offset="0.31" stop-color="#FD8432"/>
<stop offset="0.54" stop-color="#FC6B33"/>
<stop offset="0.75" stop-color="#FB5C33"/>
<stop offset="0.92" stop-color="#FB5733"/>
</linearGradient>
<radialGradient id="paint51_radial_547_1158" cx="0" cy="0" r="1" gradientUnits="userSpaceOnUse" gradientTransform="translate(1821.02 4094.27) scale(189.394 375)">
<stop stop-color="#5F074D"/>
<stop offset="0.21" stop-color="#480642"/>
<stop offset="0.48" stop-color="#320437"/>
<stop offset="0.74" stop-color="#250330"/>
<stop offset="0.97" stop-color="#20032E"/>
</radialGradient>
<radialGradient id="paint52_radial_547_1158" cx="0" cy="0" r="1" gradientUnits="userSpaceOnUse" gradientTransform="translate(1745.24 3908.63) rotate(150.113) scale(16.3631 16.3631)">
<stop stop-color="white"/>
<stop offset="0.33" stop-color="#FFE2B4" stop-opacity="0.64"/>
<stop offset="0.66" stop-color="#FFC76E" stop-opacity="0.3"/>
<stop offset="0.89" stop-color="#FFB742" stop-opacity="0.08"/>
<stop offset="1" stop-color="#FFB031" stop-opacity="0"/>
</radialGradient>
<radialGradient id="paint53_radial_547_1158" cx="0" cy="0" r="1" gradientUnits="userSpaceOnUse" gradientTransform="translate(1742.87 3882.65) rotate(150.113) scale(12.3135 12.3135)">
<stop stop-color="white"/>
<stop offset="0.33" stop-color="#FFE2B4" stop-opacity="0.64"/>
<stop offset="0.66" stop-color="#FFC76E" stop-opacity="0.3"/>
<stop offset="0.89" stop-color="#FFB742" stop-opacity="0.08"/>
<stop offset="1" stop-color="#FFB031" stop-opacity="0"/>
</radialGradient>
<radialGradient id="paint54_radial_547_1158" cx="0" cy="0" r="1" gradientUnits="userSpaceOnUse" gradientTransform="translate(1889.31 3882.52) rotate(150.113) scale(12.3163 12.3163)">
<stop stop-color="white"/>
<stop offset="0.33" stop-color="#FFE2B4" stop-opacity="0.64"/>
<stop offset="0.66" stop-color="#FFC76E" stop-opacity="0.3"/>
<stop offset="0.89" stop-color="#FFB742" stop-opacity="0.08"/>
<stop offset="1" stop-color="#FFB031" stop-opacity="0"/>
</radialGradient>
<radialGradient id="paint55_radial_547_1158" cx="0" cy="0" r="1" gradientUnits="userSpaceOnUse" gradientTransform="translate(1887.22 3908.5) rotate(150.113) scale(16.3631)">
<stop stop-color="white"/>
<stop offset="0.33" stop-color="#FFE2B4" stop-opacity="0.64"/>
<stop offset="0.66" stop-color="#FFC76E" stop-opacity="0.3"/>
<stop offset="0.89" stop-color="#FFB742" stop-opacity="0.08"/>
<stop offset="1" stop-color="#FFB031" stop-opacity="0"/>
</radialGradient>
<linearGradient id="paint56_linear_547_1158" x1="1681.7" y1="3868.48" x2="1726" y2="3868.48" gradientUnits="userSpaceOnUse">
<stop offset="0.21" stop-color="#C30038"/>
<stop offset="0.25" stop-color="#C80838"/>
<stop offset="0.44" stop-color="#DE2A36"/>
<stop offset="0.62" stop-color="#EE4334"/>
<stop offset="0.79" stop-color="#F85233"/>
<stop offset="0.92" stop-color="#FB5733"/>
</linearGradient>
<linearGradient id="paint57_linear_547_1158" x1="1569.09" y1="4009.71" x2="1685.05" y2="4009.71" gradientUnits="userSpaceOnUse">
<stop offset="0.08" stop-color="#FB5733"/>
<stop offset="0.21" stop-color="#F85233"/>
<stop offset="0.38" stop-color="#EE4334"/>
<stop offset="0.56" stop-color="#DE2A36"/>
<stop offset="0.75" stop-color="#C80838"/>
<stop offset="0.79" stop-color="#C30038"/>
</linearGradient>
<linearGradient id="paint58_linear_547_1158" x1="1611.67" y1="4009.71" x2="1758.39" y2="4009.71" gradientUnits="userSpaceOnUse">
<stop offset="0.08" stop-color="#FB5733"/>
<stop offset="0.21" stop-color="#F85233"/>
<stop offset="0.38" stop-color="#EE4334"/>
<stop offset="0.56" stop-color="#DE2A36"/>
<stop offset="0.75" stop-color="#C80838"/>
<stop offset="0.79" stop-color="#C30038"/>
</linearGradient>
<linearGradient id="paint59_linear_547_1158" x1="1685.05" y1="4009.68" x2="1800.91" y2="4009.68" gradientUnits="userSpaceOnUse">
<stop offset="0.08" stop-color="#FB5733"/>
<stop offset="0.21" stop-color="#F85233"/>
<stop offset="0.38" stop-color="#EE4334"/>
<stop offset="0.56" stop-color="#DE2A36"/>
<stop offset="0.75" stop-color="#C80838"/>
<stop offset="0.79" stop-color="#C30038"/>
</linearGradient>
<linearGradient id="paint60_linear_547_1158" x1="1685.06" y1="4014.03" x2="1685.06" y2="3892.1" gradientUnits="userSpaceOnUse">
<stop stop-color="#FFB031"/>
<stop offset="0.06" stop-color="#FFA631"/>
<stop offset="0.31" stop-color="#FD8432"/>
<stop offset="0.54" stop-color="#FC6B33"/>
<stop offset="0.75" stop-color="#FB5C33"/>
<stop offset="0.92" stop-color="#FB5733"/>
</linearGradient>
<linearGradient id="paint61_linear_547_1158" x1="1685.01" y1="4109.55" x2="1685.01" y2="3928.17" gradientUnits="userSpaceOnUse">
<stop stop-color="#FFB031"/>
<stop offset="0.06" stop-color="#FFA631"/>
<stop offset="0.31" stop-color="#FD8432"/>
<stop offset="0.54" stop-color="#FC6B33"/>
<stop offset="0.75" stop-color="#FB5C33"/>
<stop offset="0.92" stop-color="#FB5733"/>
</linearGradient>
<radialGradient id="paint62_radial_547_1158" cx="0" cy="0" r="1" gradientUnits="userSpaceOnUse" gradientTransform="translate(1686.31 4111.37) scale(98.3592 194.751)">
<stop stop-color="#5F074D"/>
<stop offset="0.21" stop-color="#480642"/>
<stop offset="0.48" stop-color="#320437"/>
<stop offset="0.74" stop-color="#250330"/>
<stop offset="0.97" stop-color="#20032E"/>
</radialGradient>
<radialGradient id="paint63_radial_547_1158" cx="0" cy="0" r="1" gradientUnits="userSpaceOnUse" gradientTransform="translate(1646.96 4014.96) rotate(150.113) scale(8.49798 8.49798)">
<stop stop-color="white"/>
<stop offset="0.33" stop-color="#FFE2B4" stop-opacity="0.64"/>
<stop offset="0.66" stop-color="#FFC76E" stop-opacity="0.3"/>
<stop offset="0.89" stop-color="#FFB742" stop-opacity="0.08"/>
<stop offset="1" stop-color="#FFB031" stop-opacity="0"/>
</radialGradient>
<radialGradient id="paint64_radial_547_1158" cx="0" cy="0" r="1" gradientUnits="userSpaceOnUse" gradientTransform="translate(1645.72 4001.47) rotate(150.113) scale(6.39485)">
<stop stop-color="white"/>
<stop offset="0.33" stop-color="#FFE2B4" stop-opacity="0.64"/>
<stop offset="0.66" stop-color="#FFC76E" stop-opacity="0.3"/>
<stop offset="0.89" stop-color="#FFB742" stop-opacity="0.08"/>
<stop offset="1" stop-color="#FFB031" stop-opacity="0"/>
</radialGradient>
<radialGradient id="paint65_radial_547_1158" cx="0" cy="0" r="1" gradientUnits="userSpaceOnUse" gradientTransform="translate(1721.77 4001.4) rotate(150.113) scale(6.39633)">
<stop stop-color="white"/>
<stop offset="0.33" stop-color="#FFE2B4" stop-opacity="0.64"/>
<stop offset="0.66" stop-color="#FFC76E" stop-opacity="0.3"/>
<stop offset="0.89" stop-color="#FFB742" stop-opacity="0.08"/>
<stop offset="1" stop-color="#FFB031" stop-opacity="0"/>
</radialGradient>
<radialGradient id="paint66_radial_547_1158" cx="0" cy="0" r="1" gradientUnits="userSpaceOnUse" gradientTransform="translate(1720.69 4014.89) rotate(150.113) scale(8.49798)">
<stop stop-color="white"/>
<stop offset="0.33" stop-color="#FFE2B4" stop-opacity="0.64"/>
<stop offset="0.66" stop-color="#FFC76E" stop-opacity="0.3"/>
<stop offset="0.89" stop-color="#FFB742" stop-opacity="0.08"/>
<stop offset="1" stop-color="#FFB031" stop-opacity="0"/>
</radialGradient>
<clipPath id="clip0_547_1158">
<rect width="1920" height="4132" fill="white"/>
</clipPath>
<clipPath id="clip1_547_1158">
<rect width="363.419" height="363.419" fill="white" transform="translate(27.4043 753) rotate(9.24798)"/>
</clipPath>
<clipPath id="clip2_547_1158">
<rect width="179.668" height="179.668" fill="white" transform="translate(162 1813.52) rotate(-14.6778)"/>
</clipPath>
<clipPath id="clip3_547_1158">
<rect width="749.151" height="749.151" fill="white" transform="translate(1435 1110) rotate(-9.60505)"/>
</clipPath>
<clipPath id="clip4_547_1158">
<rect width="162.468" height="162.468" fill="white" transform="translate(1597.86 2149) rotate(25.0762)"/>
</clipPath>
<clipPath id="clip5_547_1158">
<rect width="742" height="742" fill="white" transform="translate(-239 3390)"/>
</clipPath>
<clipPath id="clip6_547_1158">
<rect width="543" height="543" fill="white" transform="translate(1547 3591)"/>
</clipPath>
<clipPath id="clip7_547_1158">
<rect width="282" height="282" fill="white" transform="translate(1544 3850)"/>
</clipPath>
</defs>
</svg>
